<svg xmlns="http://www.w3.org/2000/svg" width="20.304" height="20.304" viewBox="0 0 20.304 20.304">
  <g id="add" transform="translate(0 -0.001)">
    <g id="Grupo_25" data-name="Grupo 25" transform="translate(0 0.001)">
      <path id="Caminho_32" data-name="Caminho 32" d="M19.2,8.736H11.569V1.1A1.369,1.369,0,0,0,10.152,0,1.369,1.369,0,0,0,8.735,1.1V8.736H1.1A1.369,1.369,0,0,0,0,10.153,1.369,1.369,0,0,0,1.1,11.57H8.735V19.2a1.369,1.369,0,0,0,1.417,1.1,1.369,1.369,0,0,0,1.417-1.1V11.57H19.2a1.369,1.369,0,0,0,1.1-1.417A1.369,1.369,0,0,0,19.2,8.736Z" transform="translate(0 -0.001)" fill="#d7044b"/>
    </g>
  </g>
</svg>
