<svg xmlns="http://www.w3.org/2000/svg" width="76.129" height="76.545" viewBox="0 0 76.129 76.545">
  <g id="icon_tickets" transform="translate(52.372 -2.581) rotate(60)">
    <g id="Grupo_2" data-name="Grupo 2" transform="translate(37.16 13.752)">
      <g id="Grupo_1" data-name="Grupo 1" transform="translate(0 0)">
        <path id="Caminho_15" data-name="Caminho 15" d="M341.594,85.406l-3.126-2.164a.92.92,0,0,0-1.048,1.514l3.126,2.164a.92.92,0,0,0,1.048-1.514Z" transform="translate(-337.024 -83.079)" fill="#d7044b"/>
      </g>
    </g>
    <g id="Grupo_4" data-name="Grupo 4" transform="translate(43.411 18.079)">
      <g id="Grupo_3" data-name="Grupo 3">
        <path id="Caminho_16" data-name="Caminho 16" d="M398.29,124.656l-3.126-2.164a.92.92,0,0,0-1.048,1.514l3.126,2.164a.935.935,0,0,0,1.281-.233A.92.92,0,0,0,398.29,124.656Z" transform="translate(-393.719 -122.328)" fill="#d7044b"/>
      </g>
    </g>
    <g id="Grupo_6" data-name="Grupo 6" transform="translate(13.582 18.525)">
      <g id="Grupo_5" data-name="Grupo 5">
        <path id="Caminho_17" data-name="Caminho 17" d="M128.012,127.267l-3.7-.868a.92.92,0,1,0-.421,1.792l3.7.868a.92.92,0,1,0,.421-1.792Z" transform="translate(-123.18 -126.374)" fill="#d7044b"/>
      </g>
    </g>
    <g id="Grupo_8" data-name="Grupo 8" transform="translate(20.984 20.262)">
      <g id="Grupo_7" data-name="Grupo 7" transform="translate(0 0)">
        <path id="Caminho_18" data-name="Caminho 18" d="M195.146,143.021l-3.7-.868a.92.92,0,1,0-.421,1.792l3.7.868a.92.92,0,1,0,.421-1.792Z" transform="translate(-190.314 -142.128)" fill="#d7044b"/>
      </g>
    </g>
    <g id="Grupo_10" data-name="Grupo 10" transform="translate(3.886 21.789)">
      <g id="Grupo_9" data-name="Grupo 9" transform="translate(0 0)">
        <path id="Caminho_19" data-name="Caminho 19" d="M58.616,159.7l-8.386-1.968a.92.92,0,1,0-.421,1.792l7.49,1.757-6.043,25.751-13.987-3.282L43.312,158l2.847.668a.92.92,0,1,0,.42-1.792L42.836,156a.921.921,0,0,0-1.106.686l-6.463,27.543a.92.92,0,0,0,.686,1.106l15.779,3.7a.921.921,0,0,0,1.107-.686L59.3,160.808A.921.921,0,0,0,58.616,159.7Z" transform="translate(-35.242 -155.975)" fill="#d7044b"/>
      </g>
    </g>
    <g id="Grupo_12" data-name="Grupo 12" transform="translate(10.008 31.879)">
      <g id="Grupo_11" data-name="Grupo 11">
        <path id="Caminho_20" data-name="Caminho 20" d="M103.3,251.51a.92.92,0,0,0-.925-.561l-3.444.289-1.339-3.186a.92.92,0,0,0-1.745.146l-.789,3.364-3.444.289a.92.92,0,0,0-.4,1.7l2.956,1.79-.789,3.364a.92.92,0,0,0,1.5.907l2.616-2.258,2.956,1.79a.92.92,0,0,0,1.325-1.144l-1.339-3.186,2.616-2.258A.92.92,0,0,0,103.3,251.51Zm-4.819,3.408.5,1.191-1.1-.669c-.764-.463-1.532.482-2.056.934l.3-1.257a.92.92,0,0,0-.419-1l-1.1-.669,1.287-.108c.894-.075.957-1.293,1.114-1.964l.5,1.191c.348.829,1.523.51,2.213.453C99.172,253.479,98.121,254.068,98.478,254.918Z" transform="translate(-90.768 -247.488)" fill="#d7044b"/>
      </g>
    </g>
    <g id="Grupo_14" data-name="Grupo 14" transform="translate(0 5.161)">
      <g id="Grupo_13" data-name="Grupo 13" transform="translate(0)">
        <path id="Caminho_21" data-name="Caminho 21" d="M56.056,18.657a1.92,1.92,0,0,1-.618-2.441.92.92,0,0,0-.3-1.174l-4.708-3.259a.921.921,0,0,0-1.2.136,1.92,1.92,0,0,1-1.415.622,1.9,1.9,0,0,1-1.087-.341,1.92,1.92,0,0,1-.618-2.441.92.92,0,0,0-.3-1.174L41.107,5.324a.921.921,0,0,0-1.2.136,1.921,1.921,0,0,1-1.415.622A1.9,1.9,0,0,1,37.4,5.741a.921.921,0,0,0-1.281.233L30.8,13.66a.917.917,0,0,0-.286-.122l-5.574-1.308a.92.92,0,0,0-1.07.567,1.915,1.915,0,0,1-3.694-.867.921.921,0,0,0-.706-.984L13.894,9.639a.921.921,0,0,0-1.07.567A1.941,1.941,0,0,1,10.6,11.385a.921.921,0,0,0-1.106.686L8.113,17.949.025,52.415a.92.92,0,0,0,.686,1.106A1.92,1.92,0,0,1,2.18,55.567a.921.921,0,0,0,.706.984L8.46,57.859a.92.92,0,0,0,1.07-.567,1.923,1.923,0,0,1,3.695.867.921.921,0,0,0,.706.984L19.5,60.451a.929.929,0,0,0,1.07-.568,1.923,1.923,0,0,1,1.786-1.229c.406,0,.755.173,1.135-.062a.922.922,0,0,0,.411-.572l1.21-5.158,2.6,1.8a.934.934,0,0,0,1.2-.136,1.915,1.915,0,0,1,2.5-.281.921.921,0,0,0,1.281-.233L56.288,19.937A.92.92,0,0,0,56.056,18.657ZM25.02,45.214l-1.387,5.912L22.3,56.814A3.779,3.779,0,0,0,19.232,58.5l-4.187-.983A3.755,3.755,0,0,0,8.187,55.9L4,54.922a3.782,3.782,0,0,0-2-2.87L9.7,19.263l.9.21a.92.92,0,1,0,.42-1.792l-.9-.21.984-4.195a3.779,3.779,0,0,0,3.067-1.682l4.187.983a3.755,3.755,0,0,0,6.858,1.609l4.187.982a2.376,2.376,0,0,1,.044.268,3.767,3.767,0,0,0,.258.8,3.807,3.807,0,0,0,1.7,1.8l-.984,4.2-.9-.21a.92.92,0,1,0-.42,1.792l.9.21-1.464,6.238-.16.682-1.075,4.58ZM51.863,23.1l-.757-.524a.92.92,0,1,0-1.048,1.513l.757.524L31.645,52.3a3.732,3.732,0,0,0-1.313-.237,3.771,3.771,0,0,0-2.157.679l-2.606-1.8.935-3.986,4.071,2.818a.928.928,0,0,0,1.281-.233l11.836-17.1a.92.92,0,1,0-1.513-1.048L30.866,47.73l-3.91-2.707,1.795-7.648,3.233-1.132,2.094,2.749a.921.921,0,0,0,1.652-.579l-.079-3.455,3.261-1.142a.92.92,0,0,0-.04-1.75l-3.31-.993-.079-3.455a.92.92,0,0,0-1.677-.5L31.84,29.956l-1.26-.378,2.37-10.1,1.16-1.675,11.812,8.178L44.32,28.3a.92.92,0,1,0,1.513,1.048l2.126-3.07a.933.933,0,0,0-.233-1.281L34.4,15.768A.928.928,0,0,0,33.12,16l-.4.577-.033-.009a1.921,1.921,0,0,1-1.125-.761l-.006-.009,2.117-3.058.757.524a.933.933,0,0,0,1.281-.233.92.92,0,0,0-.233-1.281l-.757-.524,2.452-3.542a3.759,3.759,0,0,0,3.47-.442L44.18,9.691a3.756,3.756,0,0,0,5.792,4.01l3.535,2.448a3.783,3.783,0,0,0,.809,3.4ZM33.825,35.623,33.042,34.6a.93.93,0,0,0-1.036-.311l-1.219.427c.4-.58,1.271-1.408.711-2.144l-.783-1.028,1.237.371c.863.259,1.36-.848,1.756-1.42,0,0,.029,1.29.029,1.291.021.9,1.231,1.033,1.893,1.232l-1.219.427a.92.92,0,0,0-.616.89Z" transform="translate(0 -5.161)" fill="#d7044b"/>
      </g>
    </g>
  </g>
</svg>
