<svg xmlns="http://www.w3.org/2000/svg" width="44.114" height="44.355" viewBox="0 0 44.114 44.355">
  <g id="icon_ticket" transform="translate(32.227 -2.581) rotate(60)">
    <g id="Grupo_2" data-name="Grupo 2" transform="translate(21.533 10.139)">
      <g id="Grupo_1" data-name="Grupo 1" transform="translate(0 0)">
        <path id="Caminho_15" data-name="Caminho 15" d="M339.672,84.427l-1.811-1.254a.533.533,0,0,0-.607.877l1.811,1.254a.533.533,0,0,0,.607-.877Z" transform="translate(-337.024 -83.079)" fill="#fff"/>
      </g>
    </g>
    <g id="Grupo_4" data-name="Grupo 4" transform="translate(25.155 12.647)">
      <g id="Grupo_3" data-name="Grupo 3">
        <path id="Caminho_16" data-name="Caminho 16" d="M396.368,123.677l-1.811-1.254a.533.533,0,0,0-.607.877l1.811,1.254a.542.542,0,0,0,.742-.135A.533.533,0,0,0,396.368,123.677Z" transform="translate(-393.72 -122.329)" fill="#fff"/>
      </g>
    </g>
    <g id="Grupo_6" data-name="Grupo 6" transform="translate(7.87 12.905)">
      <g id="Grupo_5" data-name="Grupo 5">
        <path id="Caminho_17" data-name="Caminho 17" d="M125.98,126.891l-2.145-.5a.533.533,0,0,0-.244,1.039l2.145.5a.533.533,0,1,0,.244-1.039Z" transform="translate(-123.18 -126.374)" fill="#fff"/>
      </g>
    </g>
    <g id="Grupo_8" data-name="Grupo 8" transform="translate(12.16 13.911)">
      <g id="Grupo_7" data-name="Grupo 7" transform="translate(0 0)">
        <path id="Caminho_18" data-name="Caminho 18" d="M193.114,142.645l-2.145-.5a.533.533,0,1,0-.244,1.038l2.145.5a.533.533,0,1,0,.244-1.038Z" transform="translate(-190.314 -142.128)" fill="#fff"/>
      </g>
    </g>
    <g id="Grupo_10" data-name="Grupo 10" transform="translate(2.252 14.796)">
      <g id="Grupo_9" data-name="Grupo 9" transform="translate(0 0)">
        <path id="Caminho_19" data-name="Caminho 19" d="M48.786,158.135l-4.859-1.14a.533.533,0,1,0-.244,1.038l4.34,1.018-3.5,14.922-8.1-1.9,3.5-14.922,1.65.387a.533.533,0,1,0,.244-1.038l-2.169-.509a.534.534,0,0,0-.641.4l-3.745,15.96a.533.533,0,0,0,.4.641l9.143,2.146a.534.534,0,0,0,.641-.4l3.745-15.96A.533.533,0,0,0,48.786,158.135Z" transform="translate(-35.242 -155.975)" fill="#fff"/>
      </g>
    </g>
    <g id="Grupo_12" data-name="Grupo 12" transform="translate(5.8 20.643)">
      <g id="Grupo_11" data-name="Grupo 11">
        <path id="Caminho_20" data-name="Caminho 20" d="M98.028,249.819a.533.533,0,0,0-.536-.325l-2,.167-.776-1.846a.533.533,0,0,0-1.011.085l-.457,1.949-2,.167a.533.533,0,0,0-.232.988l1.713,1.037-.457,1.95a.533.533,0,0,0,.868.526l1.516-1.308,1.713,1.038a.533.533,0,0,0,.768-.663l-.776-1.846,1.516-1.308A.533.533,0,0,0,98.028,249.819Zm-2.793,1.975.29.69-.64-.388c-.443-.268-.888.279-1.191.541l.171-.729a.533.533,0,0,0-.243-.578l-.64-.388.746-.062c.518-.043.554-.749.646-1.138l.29.69c.2.48.883.3,1.282.262C95.637,250.96,95.028,251.3,95.235,251.793Z" transform="translate(-90.768 -247.488)" fill="#fff"/>
      </g>
    </g>
    <g id="Grupo_14" data-name="Grupo 14" transform="translate(0 5.161)">
      <g id="Grupo_13" data-name="Grupo 13" transform="translate(0)">
        <path id="Caminho_21" data-name="Caminho 21" d="M32.482,12.981a1.113,1.113,0,0,1-.358-1.415.533.533,0,0,0-.172-.68L29.225,9a.534.534,0,0,0-.7.079,1.112,1.112,0,0,1-.82.36,1.1,1.1,0,0,1-.63-.2,1.113,1.113,0,0,1-.358-1.415.533.533,0,0,0-.172-.68L23.82,5.256a.533.533,0,0,0-.7.079,1.113,1.113,0,0,1-.82.36,1.1,1.1,0,0,1-.63-.2.533.533,0,0,0-.742.135l-3.084,4.454a.532.532,0,0,0-.166-.07l-3.23-.758a.533.533,0,0,0-.62.329,1.11,1.11,0,0,1-2.141-.5.533.533,0,0,0-.409-.57l-3.23-.758a.533.533,0,0,0-.62.329,1.125,1.125,0,0,1-1.29.683.534.534,0,0,0-.641.4l-.8,3.406L.015,32.543a.533.533,0,0,0,.4.641,1.113,1.113,0,0,1,.851,1.185.533.533,0,0,0,.409.57L4.9,35.7a.533.533,0,0,0,.62-.329,1.114,1.114,0,0,1,2.141.5.533.533,0,0,0,.409.57l3.23.758a.538.538,0,0,0,.62-.329,1.114,1.114,0,0,1,1.035-.712c.235,0,.437.1.658-.036a.534.534,0,0,0,.238-.332l.7-2.989,1.5,1.042a.541.541,0,0,0,.7-.079,1.11,1.11,0,0,1,1.45-.163.533.533,0,0,0,.742-.135L32.617,13.723A.533.533,0,0,0,32.482,12.981ZM14.5,28.37l-.8,3.426-.773,3.3a2.19,2.19,0,0,0-1.777.975L8.718,35.5a2.176,2.176,0,0,0-3.974-.932L2.318,34A2.191,2.191,0,0,0,1.16,32.333l4.458-19,.519.122a.533.533,0,1,0,.244-1.038l-.519-.122.57-2.431a2.19,2.19,0,0,0,1.777-.975l2.426.569a2.176,2.176,0,0,0,3.974.933l2.426.569a1.377,1.377,0,0,1,.025.155,2.183,2.183,0,0,0,.15.463,2.206,2.206,0,0,0,.984,1.045l-.57,2.431-.519-.122a.533.533,0,1,0-.244,1.038l.519.122-.848,3.615-.093.4-.623,2.654ZM30.053,15.553l-.439-.3a.533.533,0,1,0-.607.877l.438.3L18.337,32.475a2.163,2.163,0,0,0-.761-.138,2.185,2.185,0,0,0-1.25.394l-1.51-1.045.542-2.31,2.359,1.633a.538.538,0,0,0,.742-.135l6.859-9.907a.533.533,0,1,0-.877-.607l-6.555,9.468L15.62,28.26l1.04-4.432,1.873-.656,1.214,1.593a.533.533,0,0,0,.958-.335l-.046-2,1.89-.662a.533.533,0,0,0-.023-1.014l-1.918-.575-.046-2a.533.533,0,0,0-.972-.291l-1.14,1.646-.73-.219,1.373-5.851.672-.971,6.845,4.739-.928,1.341a.533.533,0,1,0,.877.607L27.79,17.4a.54.54,0,0,0-.135-.742l-7.722-5.346a.538.538,0,0,0-.742.135l-.231.334-.019-.005a1.113,1.113,0,0,1-.652-.441l0,0,1.227-1.772.438.3a.541.541,0,0,0,.742-.135.533.533,0,0,0-.135-.742l-.438-.3,1.421-2.052a2.178,2.178,0,0,0,2.011-.256L25.6,7.786a2.176,2.176,0,0,0,3.356,2.324l2.049,1.418a2.192,2.192,0,0,0,.469,1.972ZM19.6,22.812l-.454-.6a.539.539,0,0,0-.6-.18l-.706.247c.232-.336.737-.816.412-1.242l-.454-.6.717.215c.5.15.788-.491,1.018-.823l.017.748c.012.52.713.6,1.1.714l-.706.247a.533.533,0,0,0-.357.516Z" transform="translate(0 -5.161)" fill="#fff"/>
      </g>
    </g>
  </g>
</svg>
