<svg xmlns="http://www.w3.org/2000/svg" width="104.312" height="49.973" viewBox="0 0 104.312 49.973">
  <g id="logo_TheArenaShow_branco" transform="translate(-3.209 -0.335)">
    <path id="Caminho_8" data-name="Caminho 8" d="M57.46,4.9c-14.291.991-23.85,1.71-37.553,5.376a20.561,20.561,0,0,0-2.026-5.817c-3.84-6.4-15.729-5.621-14.6,4.275.7,6.111,5.016,7.543,8.932,7.325,3.671-.207,6.862-1.857,10.277-2.832C34,9.951,45.576,9.123,57.629,8.236,66.24,12,79.709,18.584,90.025,28.017c-12.407.871-31.11,3.84-41.981,7.707a20.411,20.411,0,0,0-2.01-4.128,13.742,13.742,0,0,0-12.1-5.528,13.193,13.193,0,0,0-3.578.594c-9.292,3.039-9.733,19.525,5.735,18.888,2.549-.1,5.038-1.422,8.513-2.543,5.67-1.83,6.743-2.124,12.189-3.6,5.327-1.443,10.621-2.685,15.936-3.627a161.67,161.67,0,0,1,16.2-1.988c5.457-.414,11.062-.626,16.791-.735C88.331,20.261,78.832,13.551,57.46,4.9ZM10.2,3.29c-2.021.67-3.186,3.023-3.186,5.223a8.015,8.015,0,0,0,.044.812c.174,1.558-.381,1.443-1.046.447a5.461,5.461,0,0,1-1-3.023c0-2.647,3.045-4.521,4.771-4.368C11.493,2.533,11.6,2.827,10.2,3.29ZM30.479,37.1c.12.245.251.485.392.713.828,1.34.283,1.476-.746.861a5.492,5.492,0,0,1-2.195-2.315c-1.144-2.407.773-5.425,2.386-6.029,1.59-.594,1.808-.376.762.648C29.558,32.456,29.531,35.1,30.479,37.1Z" transform="translate(0 0)" fill="#fff" fill-rule="evenodd"/>
    <path id="Caminho_9" data-name="Caminho 9" d="M621.281,675.968a2.208,2.208,0,0,0,.91-.163c.806-.283,1.52-.648,2.309-.975,1.558-.648,3.192-1.22,4.793-1.8l1.225-.409c1.209-.436,2.516-.817,3.758-1.187l1.661-.5c.272-.082.556-.152.839-.24l1.726-.468c.594-.18,1.16-.278,1.743-.447l3.083-.735c.447-.131.91-.191,1.367-.3,2.222-.523,4.564-.882,6.83-1.318,1.71-.327,3.486-.507,5.212-.773.986-.152,1.939-.24,2.936-.343,1.612-.174,3.306-.294,4.967-.452l3.05-.191c.3-.011.7-.016,1.018-.049l5.31-.12a3.536,3.536,0,0,0,.5-.016c.4-.016,1.264.049,1.678.033.632-.027,1.6.109,2.206.049a23.381,23.381,0,0,1,2.87.093,3.652,3.652,0,0,0,2.4-.3,11.4,11.4,0,0,0,2.456-1.329c.038-.033.6-.474.261-.49-.654-.027-5.1-.261-5.528-.212l-1.694-.016c-.245-.011-.37.016-.572.016-.185-.005-.387-.016-.572-.027l-3.333.071c-.163.016-.425.016-.566.022l-8.567.528c-.343.038-.7.065-1.073.1-2.549.234-6.612.762-9.068,1.2-.975.174-1.95.316-2.919.512l-1.422.278c-1.133.18-3.2.648-4.3.9-.621.142-1.258.261-1.863.43l-3.655.931c-.093.022-.136.027-.229.049s-.1.038-.212.065l-1.579.436c-.082.022-.147.038-.218.06-.158.049-.31.087-.463.125-.3.082-.588.174-.882.262-.566.169-1.2.327-1.765.534-.588.212-1.187.359-1.77.561-.272.093-.572.2-.86.289l-2.571.882c-.833.3-1.677.664-2.516.937-.615.2-1.868.763-2.489,1a24.826,24.826,0,0,0-3.164,1.449c-.256.147-.474.278-.724.43l-.343.256C621.335,675.707,621.248,675.816,621.281,675.968Z" transform="translate(-584.402 -626.857)" fill="#fff" fill-rule="evenodd"/>
    <path id="Caminho_10" data-name="Caminho 10" d="M697.822,781.242a15.46,15.46,0,0,1,1.955.245c.4.109.86.076,1.253.191a1.7,1.7,0,0,0,1.356-.4c.153-.109.24-.125.332-.3-.321-.038-.566-.1-.92-.142l-1.939-.223a4.366,4.366,0,0,1-.441-.093c-.174-.027-.261.011-.474-.016-.839-.1-1.558-.2-2.38-.245-.158-.011-.349-.038-.512-.06a4.407,4.407,0,0,0-.441-.016c-.163-.011-.349-.049-.512-.06l-4.967-.223c-.185,0-.283,0-.468-.011-.278-.016-.648-.011-.893-.005l-1.759-.011c-.131-.005-.31.005-.419.011-.18.005-.272,0-.458,0l-3.393.12c-.817.033-1.694.065-2.511.147l-1.628.136c-.289.016-.55.044-.828.071l-5.55.686c-1.291.169-2.587.436-3.872.643-.746.12-1.5.305-2.238.441l-3.9.866c-.9.2-1.814.479-2.7.692l-3.175.92c-.131.044-.207.065-.343.1-1.084.338-2.734.877-3.72,1.3l-2.3.937c-.1.055-.572.234-.5.392s.583-.1.681-.142c.768-.365,2.434-.931,3.328-1.253l2.064-.675c1.182-.338,2.331-.73,3.529-1.018l2.168-.556c1.71-.43,3.431-.79,5.169-1.144.615-.125,2.1-.419,2.658-.479l1.187-.2c1.013-.163,2.064-.31,3.121-.441l3.633-.381c.147-.016.245-.033.392-.044l5.871-.343,4.324-.038c1.057.005,2.091.016,3.164.082.278.016.577-.005.882.033a3.135,3.135,0,0,0,.479.027l1.389.082c.158.016.359.054.512.06.289.011.577.033.92.071l.953.076c.359.044.626.033.953.076C697.163,781.171,697.5,781.2,697.822,781.242Z" transform="translate(-611.06 -737.081)" fill="#fff" fill-rule="evenodd"/>
    <path id="Caminho_11" data-name="Caminho 11" d="M5.3,248.212c.054.207.267.316.4.452.784.79,1.618,1.558,2.435,2.315a26.893,26.893,0,0,0,2.505,2.277,5.661,5.661,0,0,0,2.968.561c.044-.2-.125-.251-.223-.354-.654-.654-1.476-1.411-2.157-2.037-.425-.392-.8-.773-1.22-1.166A14.685,14.685,0,0,0,8.753,249.1c.038-.082.049-.076.114-.12a.763.763,0,0,1,.142-.087c.076-.049.065-.049.136-.093l1.323-.79c.5-.278,1-.566,1.509-.817l.762-.392c.065-.033.1-.044.18-.076l2.184-1.013c1.5-.659,4.64-1.9,6.28-2.407l2.059-.67c1.166-.37,2.331-.7,3.5-1.024.953-.267,1.917-.5,2.865-.73.136-.033.223-.044.354-.076.839-.218,1.7-.376,2.538-.572l2.228-.441c.73-.109,1.492-.283,2.228-.392l1.514-.251c.893-.163,1.776-.251,2.674-.381.152-.022.261-.038.4-.054l1.127-.142c.114-.016.267-.027.408-.044.414-.065,1.149-.163,1.569-.18.365-.016.806-.1,1.16-.136.136-.016.289,0,.425-.022a2.377,2.377,0,0,1,.381-.044l1.585-.158c.142-.011.289-.011.425-.016.517-.022,1.084-.1,1.607-.125l.4-.016c.174-.005.229-.044.4-.049,1.122-.049,2.173-.12,3.279-.163.91-.038,1.727-.038,2.642-.076a18.189,18.189,0,0,1,2.249.005l.686.229c.082.027.163.054.234.082l1.574.594c.136.065.294.109.447.174,1.215.523,2.424,1.035,3.595,1.634l1.411.735c.534.261,1.051.588,1.569.888l.093.06,2.146,1.356c.076.049.1.065.163.114s.12.076.185.125l.359.251,1.759,1.291c.354.245.67.539,1.008.806.071.054.1.087.163.142,1.04.871,2.01,1.814,2.974,2.767.207.207.376.408.594.6a2.261,2.261,0,0,0,.822.419,7.309,7.309,0,0,0,2.13.392,1.338,1.338,0,0,0,.3-.071c.044-.2-.131-.272-.24-.387-.517-.556-1.078-1.068-1.607-1.612a18.582,18.582,0,0,0-1.7-1.509c-.071-.054-.1-.1-.18-.152s-.109-.093-.18-.153l-2.761-2.1c-.354-.283-1.89-1.285-2.358-1.547a2.287,2.287,0,0,1-.207-.131l-.4-.24c-.893-.539-1.825-1.018-2.74-1.525-.643-.359-1.351-.632-2-.98l-.91-.414c-.31-.142-.6-.261-.9-.4l-.7-.289c-.087-.033-.152-.054-.245-.093l-.953-.376c-.054-.022-.054-.033-.1-.049l-.861-.316c-.158-.054-.31-.114-.479-.174s-.321-.114-.479-.174c-.316-.12-.675-.229-1-.338l-1.018-.321c-.359-.087-.681-.212-1.057-.283a5.962,5.962,0,0,0-1.176-.158c-.2,0-.436-.038-.637-.033-.125,0-.251.016-.37.016-.158.005-.174-.022-.332-.016l-6.677.245-.142.005c-.147.011-.218.033-.354.044-.261.016-.534.022-.8.033-.305.011-.523.054-.806.06-.773.027-1.623.163-2.386.185a2.435,2.435,0,0,0-.381.038c-.142.027-.267.011-.414.038l-.763.076c-.267.022-.534.027-.8.065l-2.293.267c-.251.011-.528.06-.779.093l-1.547.212a2.617,2.617,0,0,0-.376.049c-.109.016-.24.033-.37.054-.752.142-1.52.218-2.271.343l-2.238.387c-1.095.18-2.56.452-3.665.714-.245.06-.468.1-.7.158l-2.87.675c-.24.054-.485.114-.719.18s-.452.12-.686.185l-1.051.283c-1.018.278-2.1.643-3.094.926-.223.065-.468.158-.686.223-1.77.545-3.54,1.231-5.3,1.912a52.571,52.571,0,0,0-5.032,2.271c-.114.06-.169.1-.294.163A28.41,28.41,0,0,0,5.3,248.212Z" transform="translate(-1.977 -223.196)" fill="#fff" fill-rule="evenodd"/>
    <path id="Caminho_12" data-name="Caminho 12" d="M1662.351,689.681a3.172,3.172,0,0,1-2.658-.24,4.231,4.231,0,0,1-.991-1.1,3.975,3.975,0,0,0-.839-1,2.133,2.133,0,0,0-.969-.256c-.016.027-.365.572-1.057,1.634-.256.354-.637.893-1.144,1.612-.125.2-.256.392-.386.583a2.638,2.638,0,0,1-.458.539,2.983,2.983,0,0,1-1.563.654,3.269,3.269,0,0,1-1.694-.272,9.285,9.285,0,0,1-1.628-.844,3,3,0,0,1-.735-.664,2.56,2.56,0,0,1-.425-1.16,2.05,2.05,0,0,1,.12-1.2,2.884,2.884,0,0,1,1.89-1.356,3.477,3.477,0,0,1,3.028.648,4.2,4.2,0,0,1,1.7,2.146c.049.022.12-.022.212-.142q.988-1.52,1.977-3.028,1.609-2.426,1.982-2.473a1.07,1.07,0,0,1,.752.212,3.022,3.022,0,0,1,.85,1.024,5.081,5.081,0,0,1,.474,1.193l-.016.022a6.271,6.271,0,0,0,.349,1.579,2.505,2.505,0,0,0,.915,1.16,3.008,3.008,0,0,0,.338.2C1662.564,689.321,1662.558,689.5,1662.351,689.681Z" transform="translate(-1554.991 -646.201)" fill="#fff" fill-rule="evenodd"/>
  </g>
</svg>
