<svg xmlns="http://www.w3.org/2000/svg" width="127.973" height="61.308" viewBox="0 0 127.973 61.308"><defs><style>.a{fill:#fff;fill-rule:evenodd;}</style></defs><g transform="translate(-3.209 -0.335)"><path class="a" d="M69.766,5.932c-17.533,1.216-29.26,2.1-46.071,6.595a25.225,25.225,0,0,0-2.486-7.136C16.5-2.461,1.912-1.505,3.3,10.636c.855,7.5,6.154,9.254,10.958,8.987,4.5-.254,8.419-2.278,12.609-3.475,14.119-4.016,28.317-5.031,43.1-6.121,10.564,4.624,27.088,12.7,39.743,24.268-15.221,1.069-38.166,4.711-51.5,9.455a25.04,25.04,0,0,0-2.466-5.065A16.859,16.859,0,0,0,40.907,31.9a16.185,16.185,0,0,0-4.39.728c-11.4,3.728-11.94,23.954,7.036,23.172,3.127-.127,6.181-1.744,10.444-3.12,6.956-2.245,8.272-2.606,14.954-4.417,6.535-1.771,13.03-3.294,19.551-4.45a198.34,198.34,0,0,1,19.872-2.439c6.7-.508,13.571-.768,20.6-.9C107.638,24.781,95.985,16.549,69.766,5.932ZM11.788,3.961c-2.479.822-3.909,3.708-3.909,6.408a9.833,9.833,0,0,0,.053,1c.214,1.911-.468,1.771-1.283.548A6.7,6.7,0,0,1,5.427,8.2c0-3.247,3.735-5.546,5.853-5.359C13.372,3.032,13.5,3.393,11.788,3.961ZM36.664,45.435c.147.3.307.595.481.875,1.016,1.644.347,1.811-.915,1.056a6.738,6.738,0,0,1-2.693-2.84c-1.4-2.953.949-6.655,2.927-7.4,1.951-.728,2.218-.461.935.8C35.535,39.742,35.5,42.982,36.664,45.435Z" transform="translate(0 0)"/><path class="a" d="M621.282,678.842a2.709,2.709,0,0,0,1.116-.2c.989-.348,1.864-.8,2.833-1.2,1.911-.8,3.916-1.5,5.88-2.212l1.5-.5c1.483-.535,3.087-1,4.61-1.457l2.038-.608c.334-.1.682-.187,1.029-.294l2.118-.575c.728-.221,1.423-.341,2.138-.548l3.782-.9c.548-.16,1.116-.234,1.677-.368,2.726-.641,5.6-1.082,8.379-1.617,2.1-.4,4.276-.621,6.395-.949,1.209-.187,2.379-.294,3.6-.421,1.978-.214,4.056-.361,6.094-.555l3.742-.234c.374-.013.862-.02,1.25-.06l6.515-.147a4.338,4.338,0,0,0,.615-.02c.495-.02,1.55.06,2.058.04.775-.033,1.964.134,2.706.06a28.676,28.676,0,0,1,3.521.114c1.557.067,1.657.207,2.94-.367a13.986,13.986,0,0,0,3.013-1.63c.047-.04.735-.581.321-.6-.8-.033-6.261-.321-6.782-.261l-2.078-.02c-.3-.013-.454.02-.7.02-.227-.007-.474-.02-.7-.033l-4.089.087c-.2.02-.521.02-.695.027l-10.51.648c-.421.047-.862.08-1.316.12-3.127.287-8.112.935-11.125,1.47-1.2.214-2.392.388-3.581.628l-1.744.341c-1.39.22-3.929.8-5.272,1.109-.762.174-1.543.321-2.285.528l-4.483,1.143c-.114.027-.167.033-.281.06s-.127.047-.261.08l-1.938.535c-.1.027-.18.047-.267.073-.194.06-.381.107-.568.154-.368.1-.722.214-1.082.321-.695.207-1.477.4-2.165.655-.722.261-1.457.441-2.172.688-.334.114-.7.24-1.056.354l-3.154,1.082c-1.022.374-2.058.815-3.087,1.149-.755.241-2.292.936-3.054,1.229a30.465,30.465,0,0,0-3.882,1.777c-.314.18-.581.341-.889.528l-.421.314C621.349,678.521,621.242,678.655,621.282,678.842Z" transform="translate(-576.767 -618.667)"/><path class="a" d="M708.79,781.552a18.971,18.971,0,0,1,2.4.3c.488.134,1.056.094,1.537.234a2.091,2.091,0,0,0,1.664-.488c.187-.134.294-.154.408-.367-.394-.047-.695-.127-1.129-.174l-2.379-.274a5.362,5.362,0,0,1-.541-.114c-.214-.033-.321.013-.581-.02-1.029-.127-1.911-.241-2.92-.3-.194-.013-.428-.047-.628-.073a5.4,5.4,0,0,0-.541-.02c-.2-.013-.428-.06-.628-.073l-6.094-.274c-.227,0-.347,0-.575-.013-.341-.02-.8-.013-1.1-.007l-2.158-.013c-.16-.007-.381.007-.515.013-.22.007-.334,0-.561,0l-4.163.147c-1,.04-2.078.08-3.08.18l-2,.167c-.354.02-.675.053-1.016.087l-6.809.842c-1.583.207-3.174.535-4.751.788-.915.147-1.838.374-2.746.541L665.1,783.7c-1.1.247-2.225.588-3.307.849l-3.9,1.129c-.16.053-.254.08-.421.127-1.33.414-3.354,1.076-4.564,1.59l-2.826,1.149c-.127.067-.7.287-.615.481s.715-.12.835-.174c.942-.448,2.987-1.143,4.083-1.537l2.532-.829c1.45-.414,2.86-.9,4.33-1.25l2.659-.682c2.1-.528,4.21-.969,6.341-1.4.755-.154,2.579-.515,3.261-.588l1.457-.241c1.243-.2,2.532-.381,3.829-.541l4.457-.468c.18-.02.3-.04.481-.053l7.2-.421,5.305-.047c1.3.007,2.566.02,3.882.1.341.02.708-.007,1.082.04a3.84,3.84,0,0,0,.588.033l1.7.1c.194.02.441.067.628.073.354.013.708.04,1.129.087l1.169.094c.441.053.768.04,1.169.094C707.982,781.465,708.389,781.505,708.79,781.552Z" transform="translate(-603.076 -727.451)"/><path class="a" d="M5.3,250.894c.067.254.327.388.494.555.962.969,1.984,1.911,2.987,2.84a32.991,32.991,0,0,0,3.074,2.793,6.945,6.945,0,0,0,3.642.688c.053-.241-.154-.307-.274-.434-.8-.8-1.811-1.731-2.646-2.5-.521-.481-.982-.949-1.5-1.43a18.015,18.015,0,0,0-1.543-1.417c.047-.1.06-.094.14-.147a.936.936,0,0,1,.174-.107c.094-.06.08-.06.167-.114l1.624-.969c.615-.341,1.223-.695,1.851-1l.935-.481c.08-.04.127-.053.22-.094l2.679-1.243c1.844-.809,5.693-2.325,7.7-2.953l2.526-.822c1.43-.454,2.86-.855,4.29-1.256,1.169-.327,2.352-.615,3.515-.9.167-.04.274-.053.434-.094,1.029-.267,2.085-.461,3.114-.7l2.733-.541c.9-.134,1.831-.347,2.733-.481l1.858-.307c1.1-.2,2.178-.307,3.281-.468.187-.027.321-.047.494-.067l1.383-.174c.14-.02.327-.033.5-.053.508-.08,1.41-.2,1.924-.221.448-.02.989-.127,1.423-.167.167-.02.354,0,.521-.027a2.915,2.915,0,0,1,.468-.053l1.944-.194c.174-.013.354-.013.521-.02.635-.027,1.33-.127,1.971-.154l.488-.02c.214-.007.281-.053.494-.06,1.376-.06,2.666-.147,4.022-.2,1.116-.047,2.118-.047,3.241-.094a22.313,22.313,0,0,1,2.76.007l.842.281c.1.033.2.067.287.1l1.931.728c.167.08.361.134.548.214,1.49.641,2.973,1.27,4.41,2l1.731.9c.655.321,1.29.722,1.924,1.089l.114.074,2.633,1.664c.094.06.12.08.2.14s.147.094.227.154l.441.307,2.158,1.584c.434.3.822.661,1.236.989.087.067.12.107.2.174,1.276,1.069,2.466,2.225,3.648,3.394.254.254.461.5.728.735a2.773,2.773,0,0,0,1.009.514,8.967,8.967,0,0,0,2.613.481,1.641,1.641,0,0,0,.367-.087c.053-.241-.16-.334-.294-.474-.635-.682-1.323-1.31-1.971-1.978a22.8,22.8,0,0,0-2.085-1.851c-.087-.067-.127-.12-.221-.187s-.134-.114-.22-.187L90.74,246c-.434-.347-2.319-1.577-2.893-1.9a2.809,2.809,0,0,1-.254-.16l-.494-.294c-1.1-.661-2.238-1.249-3.361-1.871-.788-.441-1.657-.775-2.459-1.2l-1.116-.508c-.381-.174-.735-.321-1.109-.488l-.855-.354c-.107-.04-.187-.067-.3-.114l-1.169-.461c-.067-.027-.067-.04-.127-.06l-1.056-.388c-.194-.067-.381-.14-.588-.214s-.394-.14-.588-.214c-.388-.147-.829-.281-1.223-.414l-1.25-.394c-.441-.107-.835-.261-1.3-.347a7.314,7.314,0,0,0-1.443-.194c-.247,0-.535-.047-.782-.04-.154,0-.307.02-.454.02-.194.007-.214-.027-.408-.02l-8.192.3-.174.007c-.18.013-.267.04-.434.053-.321.02-.655.027-.976.04-.374.013-.641.067-.989.074-.949.033-1.991.2-2.927.227a2.986,2.986,0,0,0-.468.047c-.174.033-.327.013-.508.047l-.935.094c-.327.027-.655.033-.982.08l-2.813.327c-.307.013-.648.074-.955.114l-1.9.261a3.21,3.21,0,0,0-.461.06c-.134.02-.294.04-.454.067-.922.174-1.864.267-2.786.421l-2.746.474c-1.343.221-3.14.555-4.5.875-.3.073-.575.127-.862.194l-3.521.829c-.294.067-.595.14-.882.221s-.555.147-.842.227l-1.29.347c-1.249.341-2.579.788-3.8,1.136-.274.08-.575.194-.842.274-2.172.668-4.343,1.51-6.5,2.345a64.5,64.5,0,0,0-6.174,2.786c-.14.074-.207.12-.361.2A34.854,34.854,0,0,0,5.3,250.894Z" transform="translate(-1.951 -220.279)"/><path class="a" d="M1665.659,691.024a3.892,3.892,0,0,1-3.261-.294,5.193,5.193,0,0,1-1.216-1.35,4.875,4.875,0,0,0-1.029-1.223,2.617,2.617,0,0,0-1.189-.314c-.02.033-.448.7-1.3,2-.314.434-.782,1.1-1.4,1.978-.154.241-.314.481-.474.715a3.226,3.226,0,0,1-.561.662,3.659,3.659,0,0,1-1.918.8,4.01,4.01,0,0,1-2.078-.334,11.4,11.4,0,0,1-2-1.036,3.68,3.68,0,0,1-.9-.815,3.139,3.139,0,0,1-.521-1.423,2.515,2.515,0,0,1,.147-1.47,3.538,3.538,0,0,1,2.319-1.664,4.266,4.266,0,0,1,3.715.8,5.155,5.155,0,0,1,2.091,2.633c.06.027.147-.027.261-.174q1.213-1.864,2.425-3.715,1.974-2.977,2.432-3.034a1.312,1.312,0,0,1,.922.261,3.707,3.707,0,0,1,1.042,1.256,6.248,6.248,0,0,1,.581,1.463l-.02.027a7.7,7.7,0,0,0,.428,1.938,3.075,3.075,0,0,0,1.123,1.423,3.712,3.712,0,0,0,.414.241C1665.919,690.583,1665.913,690.8,1665.659,691.024Z" transform="translate(-1534.674 -637.758)"/></g></svg>