<svg xmlns="http://www.w3.org/2000/svg" width="325.46" height="153.477" viewBox="0 0 325.46 153.477">
  <g id="logo_ArenaMix_stroke" transform="translate(-746.281 366.862)">
    <path id="Caminho_527" data-name="Caminho 527" d="M1041.784-331.524l2.84-9.841,2.562-.183,2.84,9.43Zm12.9,15.036,15.786-1.138-13.878-39.347-21.419,1.545-13.877,41.346,15.787-1.138,1.3-4.482,15.042-1.085Zm-78.546,5.662,14.9-1.074v-18.253l1.395-.1,9.9,17.539,17.09-1.232v-40.348l-14.9,1.075v18.251l-1.35.1-9.528-17.565-17.507,1.262ZM936.08-307.94l36.777-2.651V-323.1l-21.467,1.548v-2.709l20.63-1.488v-9.912l-20.63,1.486v-2.709l21.467-1.548v-12.508l-36.777,2.652Zm-30.091-25.1,7.172-.518c2.328-.168,3.352,1.009,3.352,2.882s-1.024,3.185-3.352,3.353l-7.172.519Zm27.428,25.3L926.8-320.211a15.2,15.2,0,0,0,5.075-11.722c0-11.432-6.473-15.575-17.555-14.778l-23.644,1.706v40.336l15.308-1.1v-9.4l7.871-.566,4.564,9.065Zm-73.285-10.683,2.84-9.841,2.562-.185,2.84,9.432Zm12.9,15.037,15.786-1.139L874.94-343.88l-21.42,1.543L839.644-300.99l15.786-1.138,1.3-4.482,15.041-1.085Zm104.8,79.227,33.7-2.429,11.4-20.71,2.927-.211,11.4,19.068,33.7-2.429-26.67-39.129v-1.566l26.005-41.555-33.32,2.4-11.111,19.513-2.927.211-11.018-17.919L978.5-306.512l26.289,37.783v1.567Zm-34.591,2.492,31.229-2.249v-82.3l-31.229,2.25Zm-104.08,7.5,29.712-2.142v-27.726l2.374-.171,5.223,27.349,22.8-1.643,5.222-28.1,2.375-.172v27.726l29.729-2.143v-82.3l-39.132,2.821-8.452,40.287-2.281.164-8.452-39.069-39.114,2.819Zm-37.886-53.154-15.854,1.143v-16.476l15.854-1.142Zm29.583-18.607v-15.981l-10.608.764v-18.583l-18.975,1.369v18.58l-15.854,1.143v-18.581l-18.855,1.359v18.581l-10.71.772v15.983l10.71-.772v16.475l-10.71.771v17.1l10.71-.772v18.583l18.855-1.36V-249.09l15.854-1.142v18.583l18.975-1.368V-251.6l10.608-.765v-17.1l-10.608.765V-285.17Z" fill="none" stroke="#040505" stroke-linecap="round" stroke-linejoin="round" stroke-width="1.579"/>
    <path id="Caminho_528" data-name="Caminho 528" d="M1041.786-331.522l2.84-9.842,2.562-.183,2.84,9.43Zm12.9,15.035,15.786-1.137-13.878-39.347-21.42,1.544L1021.3-314.08l15.786-1.138,1.3-4.483,15.041-1.084Zm-78.546,5.663,14.9-1.074v-18.253l1.4-.1,9.9,17.538,17.09-1.231v-40.348l-14.9,1.074v18.252l-1.35.1-9.528-17.565-17.507,1.262Zm-40.057,2.886,36.778-2.651V-323.1l-21.468,1.548v-2.709l20.629-1.488v-9.913l-20.629,1.487v-2.708l21.468-1.549v-12.508l-36.778,2.652Zm-30.091-25.1,7.172-.518c2.328-.168,3.352,1.009,3.352,2.881s-1.024,3.186-3.352,3.355l-7.172.518Zm27.428,25.295-6.613-12.462a15.2,15.2,0,0,0,5.076-11.722c0-11.431-6.473-15.575-17.556-14.777L890.682-345v40.337l15.309-1.1v-9.395l7.87-.567,4.564,9.065ZM860.134-318.43l2.84-9.841,2.562-.185,2.84,9.432Zm12.9,15.037,15.786-1.139-13.876-39.346-21.421,1.544-13.876,41.347,15.786-1.138,1.3-4.484,15.041-1.084Zm104.8,79.227,33.7-2.43,11.4-20.709,2.926-.212,11.4,19.068,33.7-2.429-26.67-39.129v-1.566l26-41.554-33.32,2.4-11.112,19.514-2.926.21-11.018-17.918L978.5-306.511l26.291,37.784v1.566Zm-34.591,2.492,31.229-2.25v-82.3l-31.229,2.25Zm-104.08,7.5,29.711-2.142V-244.04l2.374-.171,5.223,27.35,22.8-1.643,5.223-28.1,2.375-.171v27.726l29.728-2.143v-82.3l-39.132,2.821-8.452,40.287-2.28.164-8.453-39.069-39.113,2.82Zm-37.887-53.154-15.854,1.143v-16.475l15.854-1.142Zm29.583-18.606v-15.982l-10.608.765v-18.583l-18.975,1.368v18.581l-15.854,1.142v-18.581l-18.855,1.359v18.582l-10.71.772v15.983l10.71-.773v16.475l-10.71.772v17.1l10.71-.772v18.583l18.855-1.36v-18.582l15.854-1.142v18.582l18.975-1.367V-251.6l10.608-.765v-17.1l-10.608.764v-16.474Z" fill="#040505"/>
    <path id="Caminho_529" data-name="Caminho 529" d="M1032.391-340.627l2.835-9.839,2.556-.18,2.833,9.432Zm12.872,15.049,15.752-1.121-13.848-39.363-21.374,1.522-13.845,41.333,15.751-1.121,1.3-4.483,15.009-1.068ZM966.886-320l14.868-1.057V-339.31l1.394-.1,9.878,17.549,17.053-1.214v-40.347l-14.868,1.058v18.252l-1.347.1-9.509-17.575-17.469,1.243Zm-39.969,2.845,36.7-2.613v-12.508l-21.421,1.526v-2.708l20.584-1.466v-9.914l-20.584,1.465v-2.708l21.421-1.526v-12.508l-36.7,2.612Zm-30.026-25.136,7.156-.51c2.322-.166,3.345,1.012,3.344,2.885s-1.021,3.186-3.344,3.35l-7.157.51Zm27.369,25.325-6.6-12.469a15.2,15.2,0,0,0,5.063-11.717c0-11.432-6.459-15.583-17.517-14.8l-23.594,1.679v40.339l15.275-1.087v-9.4l7.855-.558,4.553,9.07Zm-73.128-10.761,2.834-9.838,2.558-.181,2.833,9.433ZM864-312.677l15.751-1.122-13.847-39.362-21.373,1.523-13.847,41.332,15.752-1.12,1.3-4.483,15.008-1.068Zm104.575,79.338,33.626-2.394,11.373-20.7,2.919-.206,11.372,19.079,33.628-2.394-26.613-39.156v-1.567l25.949-41.527-33.248,2.368-11.087,19.5-2.921.208-10.993-17.931-33.341,2.374,26.233,37.811v1.567Zm-34.518,2.456,31.163-2.217v-82.3l-31.163,2.217ZM830.206-223.49l29.647-2.111v-27.726l2.369-.169,5.212,27.355,22.747-1.618,5.212-28.1,2.369-.169V-228.3l29.665-2.111v-82.3l-39.048,2.779-8.434,40.279-2.275.163-8.434-39.08-39.03,2.779Zm-37.8-53.195-15.82,1.127v-16.476l15.819-1.124Zm29.519-18.575v-15.982l-10.586.754v-18.583L792.4-327.724v18.583l-15.821,1.124V-326.6l-18.814,1.338v18.583l-10.687.759v15.983l10.685-.759v16.474l-10.686.76v17.1l10.686-.761v18.582l18.816-1.339v-18.583l15.819-1.124v18.581l18.935-1.347v-18.582l10.586-.753v-17.1l-10.584.753v-16.474Z" fill="none" stroke="#040505" stroke-linecap="round" stroke-linejoin="round" stroke-width="1.599"/>
    <path id="Caminho_530" data-name="Caminho 530" d="M1032.388-340.628l2.834-9.838,2.556-.181,2.834,9.432Zm12.871,15.05,15.752-1.121-13.847-39.363-21.374,1.522-13.846,41.334,15.751-1.122,1.3-4.483L1044-329.879ZM966.882-320l14.869-1.058v-18.253l1.394-.1,9.878,17.55,17.052-1.214v-40.347l-14.868,1.058v18.252l-1.347.1-9.508-17.575-17.47,1.243Zm-39.969,2.845,36.7-2.612v-12.509L942.19-330.75v-2.709l20.585-1.465v-9.914l-20.585,1.466v-2.709l21.421-1.526v-12.508l-36.7,2.613Zm-30.026-25.136,7.156-.509c2.323-.167,3.346,1.011,3.346,2.884s-1.023,3.186-3.346,3.351l-7.156.51Zm27.37,25.325-6.6-12.47a15.194,15.194,0,0,0,5.065-11.716c0-11.432-6.46-15.583-17.518-14.8l-23.594,1.68v40.338l15.276-1.087v-9.4l7.854-.559,4.554,9.071ZM851.13-327.727l2.834-9.838,2.556-.181,2.834,9.433ZM864-312.677l15.751-1.121L865.905-353.16l-21.374,1.522-13.846,41.332,15.752-1.12,1.3-4.482,15.009-1.069ZM968.575-233.34l33.626-2.394,11.373-20.7,2.92-.207,11.372,19.079,33.627-2.393-26.614-39.157v-1.567l25.95-41.526-33.247,2.367-11.088,19.5-2.92.208-10.994-17.93-33.341,2.374,26.233,37.811v1.567Zm-34.517,2.457L965.22-233.1v-82.3l-31.162,2.218ZM830.2-223.49,859.85-225.6v-27.727l2.369-.168,5.212,27.355,22.747-1.619,5.212-28.1,2.369-.169V-228.3l29.665-2.111v-82.3l-39.047,2.779-8.435,40.279-2.274.162-8.436-39.079L830.2-305.787Zm-37.8-53.195-15.819,1.127v-16.475l15.819-1.125Zm29.52-18.575v-15.982l-10.585.754V-329.07L792.4-327.723v18.582l-15.819,1.125V-326.6l-18.815,1.339v18.582l-10.686.76v15.983l10.686-.76v16.474l-10.686.76v17.1l10.686-.76v18.581l18.815-1.339v-18.582l15.819-1.125v18.581l18.935-1.347v-18.582l10.585-.753v-17.1l-10.585.754v-16.474Z" fill="#fff"/>
  </g>
</svg>
