<svg xmlns="http://www.w3.org/2000/svg" width="230.753" height="108.217" viewBox="0 0 230.753 108.217">
  <g id="logo_ArenaMix" transform="translate(-55.825 -57.678)">
    <path id="Caminho_525" data-name="Caminho 525" d="M261.983,78.337l2.022-7.011,1.828-.131,2.022,6.718Zm9.189,10.712,11.248-.81L272.533,60.2l-15.262,1.1-9.887,29.46,11.248-.81.928-3.2,10.717-.769ZM215.21,93.083l10.617-.766v-13l.995-.072,7.052,12.5,12.178-.877V62.114l-10.617.766v13l-.964.069-6.788-12.514-12.473.9Zm-28.537,2.056,26.2-1.887V84.34l-15.3,1.1v-1.93l14.7-1.059V75.389l-14.7,1.061V74.52l15.3-1.1v-8.91l-26.2,1.889ZM165.231,77.252l5.111-.367c1.658-.12,2.389.718,2.389,2.053a2.248,2.248,0,0,1-2.389,2.389l-5.111.369Zm19.543,18.025L180.062,86.4a10.824,10.824,0,0,0,3.617-8.351c0-8.146-4.611-11.1-12.509-10.53l-16.846,1.215v28.74l10.907-.787V89.992l5.608-.4,3.25,6.457Zm-52.214-7.613,2.025-7.011,1.825-.131,2.025,6.718Zm9.192,10.712L153,97.569,143.11,69.532l-15.262,1.1-9.887,29.457,11.248-.81.928-3.194,10.72-.774Zm74.669,56.449,24.01-1.73,8.118-14.757,2.087-.149,8.118,13.585,24.01-1.733-19-27.876v-1.118l18.53-29.6-23.741,1.71-7.915,13.9-2.087.149L240.7,94.439l-23.808,1.717,18.733,26.92v1.115ZM191.774,156.6l22.249-1.6V96.364l-22.249,1.6Zm-74.156,5.344,21.168-1.525V140.666l1.692-.123,3.722,19.486,16.244-1.169,3.719-20.022,1.694-.123v19.753l21.18-1.525V98.307l-27.881,2.01-6.024,28.7-1.625.118L145.486,101.3l-27.868,2.01Zm-26.991-37.87-11.3.813V113.151l11.3-.813ZM111.7,110.819V99.433l-7.559.543V86.737l-13.519.974V100.95l-11.3.815V88.526L65.9,89.495v13.237l-7.631.551v11.386l7.631-.549v11.737l-7.631.551v12.181l7.631-.551v13.239l13.434-.969V137.069l11.3-.813v13.237l13.519-.971V135.283l7.559-.546V122.556l-7.559.543V111.362Z" transform="translate(3.814 3.949)"/>
    <path id="Caminho_526" data-name="Caminho 526" d="M259.1,75.8l2.02-7.011,1.82-.128,2.02,6.721Zm9.169,10.722,11.222-.8-9.864-28.045L254.4,58.762l-9.866,29.447,11.222-.8.928-3.191,10.694-.761Zm-55.841,3.973,10.594-.754v-13l.992-.072,7.039,12.5L243.2,88.3V59.559l-10.594.754v13l-.959.067-6.775-12.522-12.447.887Zm-28.476,2.03L210.1,90.662V81.75l-15.262,1.087v-1.93L209.5,79.861V72.8l-14.665,1.043v-1.93L210.1,70.828V61.915l-26.146,1.861ZM162.56,74.614l5.1-.364c1.656-.118,2.384.72,2.384,2.056a2.242,2.242,0,0,1-2.384,2.386l-5.1.364Zm19.5,18.043-4.7-8.884a10.821,10.821,0,0,0,3.609-8.346c0-8.146-4.6-11.1-12.481-10.543l-16.81,1.2V94.82l10.884-.774v-6.7l5.6-.4,3.245,6.462Zm-52.1-7.667,2.02-7.008,1.823-.131,2.02,6.721Zm9.171,10.722,11.222-.8L140.485,66.87l-15.229,1.084L115.393,97.4l11.225-.8.925-3.194,10.694-.764Zm74.507,56.526,23.957-1.7,8.1-14.747,2.081-.149,8.1,13.593,23.956-1.7-18.958-27.9v-1.115l18.486-29.586-23.687,1.684-7.9,13.9-2.081.146L237.865,91.88l-23.757,1.692L232.8,120.509v1.118Zm-24.592,1.751,22.2-1.579V93.774l-22.2,1.579Zm-73.995,5.268,21.124-1.5V138l1.687-.118,3.714,19.489,16.205-1.153,3.714-20.019,1.689-.12v19.755l21.134-1.5V95.692L156.5,97.67l-6.011,28.7-1.62.115-6.011-27.842-27.807,1.979Zm-26.935-37.9-11.271.8V110.42l11.271-.8Zm21.032-13.232V96.735l-7.541.538V84.034l-13.491.959V98.232l-11.271.8V85.795l-13.4.954V99.988l-7.616.541v11.389l7.616-.541v11.737l-7.616.541v12.181l7.616-.541v13.237l13.4-.951V134.338l11.271-.8v13.242l13.491-.961V132.577l7.541-.536V119.858l-7.541.538v-11.74Z" transform="translate(0 0)" fill="#fff"/>
  </g>
</svg>
