<svg xmlns="http://www.w3.org/2000/svg" width="317.603" height="70.22" viewBox="0 0 317.603 70.22">
  <g id="logo_novidades" transform="translate(-34.615 -342.679)">
    <g id="Grupo_32" data-name="Grupo 32" transform="translate(36.115 344.179)">
      <g id="Grupo_31" data-name="Grupo 31" transform="translate(0 0)">
        <path id="Caminho_47" data-name="Caminho 47" d="M84.1,358.2V344.179h17.208v12.49h6.662v-12.49h17.208V358.2" transform="translate(-75.912 -344.179)" fill="none" stroke="#fff" stroke-miterlimit="10" stroke-width="3"/>
        <path id="Caminho_48" data-name="Caminho 48" d="M84.1,650.823V664.84h17.208V652.35h6.662v12.49h17.208V650.823" transform="translate(-75.912 -598.503)" fill="none" stroke="#fff" stroke-miterlimit="10" stroke-width="3"/>
        <path id="Caminho_49" data-name="Caminho 49" d="M44.441,459.277H36.115V442.068h8.327v-6.662H36.115V418.2h9.437" transform="translate(-36.115 -405.569)" fill="none" stroke="#fff" stroke-miterlimit="10" stroke-width="3"/>
        <path id="Caminho_50" data-name="Caminho 50" d="M324.046,459.277h8.327V442.068h-8.327v-6.662h8.327V418.2h-8.327" transform="translate(-274.918 -405.569)" fill="none" stroke="#fff" stroke-miterlimit="10" stroke-width="3"/>
        <rect id="Retângulo_27" data-name="Retângulo 27" width="6.662" height="6.662" transform="translate(25.395 29.977)" fill="none" stroke="#fff" stroke-miterlimit="10" stroke-width="3"/>
      </g>
    </g>
    <g id="Grupo_33" data-name="Grupo 33" transform="translate(100.898 345.122)">
      <path id="Caminho_51" data-name="Caminho 51" d="M415.8,350.676a.943.943,0,0,1,.269-.706,1.042,1.042,0,0,1,.76-.263H440.1a1.1,1.1,0,0,1,.8.273.977.977,0,0,1,.282.735v5.211a1.039,1.039,0,0,1-1.1,1.008h-15.2v5.226H436.6a1.336,1.336,0,0,1,.739.19.7.7,0,0,1,.293.632v4.552a.827.827,0,0,1-.258.569.981.981,0,0,1-.75.274h-11.75v5.395h15.761q1.055,0,1.055.966v5.3a.5.5,0,0,1-.188.378q-.094.588-.962.588H416.83a1.176,1.176,0,0,1-.749-.221.818.818,0,0,1-.281-.685Z" transform="translate(-415.801 -349.707)" fill="#fff"/>
      <path id="Caminho_52" data-name="Caminho 52" d="M596.474,350.634a1.072,1.072,0,0,1,.328-.653,1.1,1.1,0,0,1,.8-.274h8.115a1.075,1.075,0,0,1,1.126.8l6.379,19.134,6.426-19.134a1.194,1.194,0,0,1,1.2-.8h8.021a1.215,1.215,0,0,1,.762.263.958.958,0,0,1,.387.664q.821,7.418,1.677,14.719t1.677,14.719v.105q0,.822-1.032.822H625.7q-1.079,0-1.126-.927l-2.04-16.289-5.277,16.394a1.17,1.17,0,0,1-.34.506.834.834,0,0,1-.575.3h-6.168a.927.927,0,0,1-.6-.285.887.887,0,0,1-.34-.516l-5.277-16.352-2.04,16.247q-.047.928-1.149.927h-6.637q-1.009,0-1.008-.927Z" transform="translate(-562.865 -349.707)" fill="#fff"/>
      <path id="Caminho_53" data-name="Caminho 53" d="M951.471,350.676a.942.942,0,0,1,.27-.706,1.046,1.046,0,0,1,.762-.263h15.573a10.726,10.726,0,0,1,3.893.706,10.274,10.274,0,0,1,3.2,1.939,9.241,9.241,0,0,1,2.169,2.887,8.076,8.076,0,0,1,.8,3.551,7.751,7.751,0,0,1-.551,2.94,7.836,7.836,0,0,1-1.559,2.434,10.416,10.416,0,0,1,2.674,3.308,8.781,8.781,0,0,1,.985,4.067,8.324,8.324,0,0,1-.821,3.635,9.914,9.914,0,0,1-2.216,3.014,10.624,10.624,0,0,1-3.26,2.054,10.328,10.328,0,0,1-3.928.759H952.5a1.181,1.181,0,0,1-.751-.221.817.817,0,0,1-.281-.685Zm17.661,8.3a2.731,2.731,0,0,0-.259-1.18,3.037,3.037,0,0,0-.729-.969,3.464,3.464,0,0,0-1.129-.664,4.128,4.128,0,0,0-1.434-.242h-5.033v6.111h4.962a4.665,4.665,0,0,0,1.47-.221,3.267,3.267,0,0,0,1.141-.632,3.024,3.024,0,0,0,.741-.969A2.791,2.791,0,0,0,969.132,358.979Zm1.243,12.243a3.2,3.2,0,0,0-.27-1.264,3.685,3.685,0,0,0-.752-1.127,3.933,3.933,0,0,0-1.152-.811,3.346,3.346,0,0,0-1.446-.316h-6.206v7.038h6.206a3.466,3.466,0,0,0,1.434-.295,3.807,3.807,0,0,0,1.152-.79,3.577,3.577,0,0,0,.764-1.127A3.29,3.29,0,0,0,970.375,371.222Z" transform="translate(-860.074 -349.707)" fill="#fff"/>
      <path id="Caminho_54" data-name="Caminho 54" d="M1145.7,350.676a.965.965,0,0,1,.258-.706,1.038,1.038,0,0,1,.774-.263h15.151a12.514,12.514,0,0,1,4.527.811,11.983,11.983,0,0,1,3.682,2.2,10.315,10.315,0,0,1,2.474,3.256,9,9,0,0,1,.9,3.972,8.539,8.539,0,0,1-.434,2.729,9.715,9.715,0,0,1-1.208,2.423,10.59,10.59,0,0,1-1.841,2.044,12.022,12.022,0,0,1-2.334,1.57l6.028,10.2q.164.3.422.7a1.345,1.345,0,0,1,.258.7.6.6,0,0,1-.246.516,1.115,1.115,0,0,1-.668.179H1165.4a1.26,1.26,0,0,1-.715-.211.953.953,0,0,1-.411-.569l-5.7-9.63h-3.8v9.5q0,.906-1.079.906h-6.966a1.181,1.181,0,0,1-.75-.221.817.817,0,0,1-.281-.685Zm18.364,9.356a3.329,3.329,0,0,0-.258-1.265,4.024,4.024,0,0,0-.727-1.159,4.157,4.157,0,0,0-2.58-1.349q-.657-.042-1.231-.074t-1.255-.032h-3.236v7.733h4.315q.422,0,.751-.021t.727-.063a4,4,0,0,0,1.478-.432,3.763,3.763,0,0,0,1.1-.864,3.706,3.706,0,0,0,.68-1.159A3.817,3.817,0,0,0,1164.061,360.033Z" transform="translate(-1021.16 -349.707)" fill="#fff"/>
      <path id="Caminho_55" data-name="Caminho 55" d="M1338.824,350.676a.944.944,0,0,1,.269-.706,1.042,1.042,0,0,1,.76-.263h23.268a1.1,1.1,0,0,1,.8.273.977.977,0,0,1,.281.735v5.211a1.039,1.039,0,0,1-1.1,1.008h-15.2v5.226h11.727a1.336,1.336,0,0,1,.739.19.7.7,0,0,1,.293.632v4.552a.828.828,0,0,1-.258.569.982.982,0,0,1-.75.274H1347.9v5.395h15.761q1.055,0,1.055.966v5.3a.5.5,0,0,1-.188.378q-.094.588-.961.588h-23.714a1.175,1.175,0,0,1-.749-.221.818.818,0,0,1-.281-.685Z" transform="translate(-1181.336 -349.707)" fill="#fff"/>
      <path id="Caminho_56" data-name="Caminho 56" d="M1517.679,380.557a6.6,6.6,0,0,1-.457-.78q-.2-.4-.387-.822l-12.032-28.3a.485.485,0,0,0-.035-.19.438.438,0,0,1-.035-.169q0-.59.868-.59h7.552a1.211,1.211,0,0,1,1.22.8l7.153,19.176q.962-2.4,1.841-4.794t1.736-4.794q.856-2.4,1.735-4.794t1.841-4.794a1.262,1.262,0,0,1,1.29-.8h7.388a1.239,1.239,0,0,1,.762.179.578.578,0,0,1,.223.474.777.777,0,0,1-.024.232v.063l-12.1,28.3q-.118.3-.281.653a4.358,4.358,0,0,1-.375.664,2.2,2.2,0,0,1-.493.516,1.029,1.029,0,0,1-.633.211h-5.793A.985.985,0,0,1,1517.679,380.557Z" transform="translate(-1318.937 -349.707)" fill="#fff"/>
      <path id="Caminho_57" data-name="Caminho 57" d="M1726.45,350.676a.944.944,0,0,1,.269-.706,1.042,1.042,0,0,1,.76-.263h23.269a1.1,1.1,0,0,1,.8.273.977.977,0,0,1,.282.735v5.211a1.039,1.039,0,0,1-1.1,1.008h-15.2v5.226h11.727a1.336,1.336,0,0,1,.739.19.7.7,0,0,1,.293.632v4.552a.827.827,0,0,1-.258.569.981.981,0,0,1-.75.274h-11.75v5.395h15.761q1.055,0,1.055.966v5.3a.5.5,0,0,1-.188.378q-.094.588-.961.588h-23.714a1.174,1.174,0,0,1-.748-.221.818.818,0,0,1-.281-.685Z" transform="translate(-1502.824 -349.707)" fill="#fff"/>
    </g>
    <g id="Grupo_35" data-name="Grupo 35" transform="translate(103.329 383.652)">
      <g id="Grupo_34" data-name="Grupo 34" transform="translate(0 0)">
        <path id="Caminho_58" data-name="Caminho 58" d="M430.051,579.7a.787.787,0,0,1,.221-.559.869.869,0,0,1,.662-.234H437.5a1.5,1.5,0,0,1,.582.126,1.235,1.235,0,0,1,.522.433q2.548,3.7,5.057,7.284t5.077,7.283V579.6a.865.865,0,0,1,.321-.5.913.913,0,0,1,.562-.18h5.719a1.152,1.152,0,0,1,.7.207.686.686,0,0,1,.281.586V604.98a.608.608,0,0,1-.241.532,1.124,1.124,0,0,1-.662.171h-6.4a.713.713,0,0,1-.462-.162,2.962,2.962,0,0,1-.421-.433l-5.277-7.842q-2.609-3.876-5.3-7.842V604.89a.8.8,0,0,1-.2.595,1.021,1.021,0,0,1-.722.2h-5.7a.881.881,0,0,1-.672-.225.775.775,0,0,1-.211-.55Z" transform="translate(-430.051 -578.334)" fill="none" stroke="#fff" stroke-miterlimit="10" stroke-width="3"/>
        <path id="Caminho_59" data-name="Caminho 59" d="M614.215,590.4a12.374,12.374,0,0,1,.542-3.669,13.068,13.068,0,0,1,1.546-3.3,14.258,14.258,0,0,1,2.4-2.8,14.887,14.887,0,0,1,3.1-2.155,16.78,16.78,0,0,1,3.664-1.388,16.861,16.861,0,0,1,11.837,1.388,15.143,15.143,0,0,1,3.113,2.155,13.853,13.853,0,0,1,2.4,2.8,13.566,13.566,0,0,1,1.546,3.3,12.468,12.468,0,0,1,0,7.338,13.239,13.239,0,0,1-1.546,3.281,13.862,13.862,0,0,1-2.4,2.776,15.6,15.6,0,0,1-3.113,2.154,16.116,16.116,0,0,1-3.674,1.388,17.351,17.351,0,0,1-8.162,0,16.152,16.152,0,0,1-3.664-1.388,15.332,15.332,0,0,1-3.1-2.154,14.27,14.27,0,0,1-2.4-2.776,12.761,12.761,0,0,1-1.546-3.281A12.372,12.372,0,0,1,614.215,590.4Zm7.766-.018a6.966,6.966,0,0,0,.561,2.794,6.84,6.84,0,0,0,1.573,2.263,7.383,7.383,0,0,0,2.395,1.514,8.742,8.742,0,0,0,6.1,0,7.36,7.36,0,0,0,2.4-1.514,6.844,6.844,0,0,0,1.573-2.263,7.059,7.059,0,0,0-1.573-7.86,7.406,7.406,0,0,0-2.4-1.533,8.609,8.609,0,0,0-6.1,0,7.43,7.43,0,0,0-2.395,1.533,6.912,6.912,0,0,0-1.573,2.281A6.988,6.988,0,0,0,621.981,590.378Z" transform="translate(-582.793 -576.406)" fill="none" stroke="#fff" stroke-miterlimit="10" stroke-width="3"/>
        <path id="Caminho_60" data-name="Caminho 60" d="M804.166,605.3a5.681,5.681,0,0,1-.391-.667q-.171-.342-.331-.7L793.15,579.722a.421.421,0,0,0-.03-.162.369.369,0,0,1-.03-.144q0-.5.742-.5h6.461a1.036,1.036,0,0,1,1.043.685L807.457,596q.823-2.055,1.575-4.1t1.485-4.1q.732-2.055,1.485-4.1t1.575-4.1a1.079,1.079,0,0,1,1.1-.685H821a1.06,1.06,0,0,1,.652.153.5.5,0,0,1,.191.406.661.661,0,0,1-.02.2v.054L811.47,603.935q-.1.253-.241.559a3.733,3.733,0,0,1-.321.568,1.875,1.875,0,0,1-.421.442.88.88,0,0,1-.542.18h-4.956A.843.843,0,0,1,804.166,605.3Z" transform="translate(-731.147 -578.334)" fill="none" stroke="#fff" stroke-miterlimit="10" stroke-width="3"/>
        <path id="Caminho_61" data-name="Caminho 61" d="M983.251,579.7a.788.788,0,0,1,.221-.559.868.868,0,0,1,.662-.234h5.9a1.212,1.212,0,0,1,.642.216.657.657,0,0,1,.341.577V604.89q0,.793-.983.793h-5.9q-.883,0-.883-.793Z" transform="translate(-888.863 -578.334)" fill="none" stroke="#fff" stroke-miterlimit="10" stroke-width="3"/>
        <path id="Caminho_62" data-name="Caminho 62" d="M1090.874,592.237a12.025,12.025,0,0,1-.542,3.633,12.315,12.315,0,0,1-1.545,3.209,13.673,13.673,0,0,1-2.4,2.7,14.805,14.805,0,0,1-3.09,2.055,16.627,16.627,0,0,1-3.662,1.307,17.841,17.841,0,0,1-4.073.46h-9.893a1.382,1.382,0,0,1-.642-.144.622.622,0,0,1-.281-.613V579.653a.835.835,0,0,1,.231-.613.932.932,0,0,1,.692-.234h9.893a17.383,17.383,0,0,1,4.063.469,16.409,16.409,0,0,1,3.652,1.334,15.653,15.653,0,0,1,3.1,2.073,13.167,13.167,0,0,1,2.4,2.7,12.9,12.9,0,0,1,1.545,3.227A11.863,11.863,0,0,1,1090.874,592.237Zm-18.36-6.959v13.864h1.685q.461,0,.9-.027t.883-.063a8.8,8.8,0,0,0,2.809-.658,7.839,7.839,0,0,0,2.278-1.442,6.464,6.464,0,0,0,1.525-2.1,6.258,6.258,0,0,0,.552-2.632,6.172,6.172,0,0,0-.632-2.785,6.944,6.944,0,0,0-1.716-2.2,7.906,7.906,0,0,0-2.538-1.442,9.241,9.241,0,0,0-3.1-.514Z" transform="translate(-956.455 -578.247)" fill="none" stroke="#fff" stroke-miterlimit="10" stroke-width="3"/>
        <path id="Caminho_63" data-name="Caminho 63" d="M1229.753,579.614a.516.516,0,0,1,.13-.234,1.39,1.39,0,0,1,.271-.234,1.5,1.5,0,0,1,.341-.171,1.042,1.042,0,0,1,.341-.063h5.137a.911.911,0,0,1,.582.189,2.455,2.455,0,0,1,.361.333l.5,1.027,10.535,24.411a.489.489,0,0,1-.06.586,1.045,1.045,0,0,1-.763.225h-5.759a1.373,1.373,0,0,1-.712-.153.994.994,0,0,1-.391-.514q-.4-.92-.783-1.83t-.762-1.83h-10.655q-.382.92-.773,1.83t-.772,1.83a1,1,0,0,1-1.023.667h-5.919a1.055,1.055,0,0,1-.632-.18q-.251-.18-.09-.541Zm3.652,7.716q-.381.92-.773,1.983t-.772,2.145q-.381,1.082-.772,2.136t-.772,1.974h6.16Z" transform="translate(-1084.217 -578.334)" fill="none" stroke="#fff" stroke-miterlimit="10" stroke-width="3"/>
        <path id="Caminho_64" data-name="Caminho 64" d="M1437.333,592.237a12.021,12.021,0,0,1-.542,3.633,12.315,12.315,0,0,1-1.545,3.209,13.669,13.669,0,0,1-2.4,2.7,14.805,14.805,0,0,1-3.09,2.055,16.625,16.625,0,0,1-3.662,1.307,17.841,17.841,0,0,1-4.073.46h-9.893a1.382,1.382,0,0,1-.642-.144.622.622,0,0,1-.281-.613V579.653a.835.835,0,0,1,.231-.613.932.932,0,0,1,.692-.234h9.893a17.383,17.383,0,0,1,4.063.469,16.407,16.407,0,0,1,3.652,1.334,15.656,15.656,0,0,1,3.1,2.073,13.163,13.163,0,0,1,2.4,2.7,12.9,12.9,0,0,1,1.545,3.227A11.863,11.863,0,0,1,1437.333,592.237Zm-18.36-6.959v13.864h1.685q.461,0,.9-.027t.883-.063a8.8,8.8,0,0,0,2.809-.658,7.836,7.836,0,0,0,2.278-1.442,6.467,6.467,0,0,0,1.525-2.1,6.26,6.26,0,0,0,.552-2.632,6.17,6.17,0,0,0-.632-2.785,6.942,6.942,0,0,0-1.716-2.2,7.905,7.905,0,0,0-2.538-1.442,9.242,9.242,0,0,0-3.1-.514Z" transform="translate(-1243.8 -578.247)" fill="none" stroke="#fff" stroke-miterlimit="10" stroke-width="3"/>
        <path id="Caminho_65" data-name="Caminho 65" d="M1595.021,579.74a.807.807,0,0,1,.23-.6.892.892,0,0,1,.651-.225h19.907a.939.939,0,0,1,.682.234.835.835,0,0,1,.241.629v4.458a.889.889,0,0,1-.943.863h-13v4.471h10.033a1.142,1.142,0,0,1,.632.162.6.6,0,0,1,.251.541v3.894a.708.708,0,0,1-.221.487.84.84,0,0,1-.642.234h-10.053V599.5h13.485q.9,0,.9.827v4.53a.427.427,0,0,1-.161.323q-.08.5-.823.5H1595.9a1.006,1.006,0,0,1-.641-.189.7.7,0,0,1-.24-.586Z" transform="translate(-1396.251 -578.334)" fill="none" stroke="#fff" stroke-miterlimit="10" stroke-width="3"/>
        <path id="Caminho_66" data-name="Caminho 66" d="M1749.146,594.225q.341.253.873.676a11.635,11.635,0,0,0,1.214.839,10.64,10.64,0,0,0,2.027.955,6.469,6.469,0,0,0,2.107.342,6.076,6.076,0,0,0,1.716-.207,2.994,2.994,0,0,0,1.094-.55,1.938,1.938,0,0,0,.572-.792,2.682,2.682,0,0,0,.171-.955,1.34,1.34,0,0,0-.471-1,4.881,4.881,0,0,0-1.154-.784,10.405,10.405,0,0,0-1.425-.585q-.742-.243-1.284-.405a31.154,31.154,0,0,1-4.214-1.63,13.055,13.055,0,0,1-3.01-1.945,7.311,7.311,0,0,1-1.806-2.36,6.7,6.7,0,0,1-.6-2.873,6.216,6.216,0,0,1,.752-3.044,6.9,6.9,0,0,1,2.147-2.342,10.7,10.7,0,0,1,3.361-1.5,16.833,16.833,0,0,1,4.395-.532,16.231,16.231,0,0,1,3.5.37,14.263,14.263,0,0,1,3.3,1.181q.682.361,1.294.748t1.073.748a4.844,4.844,0,0,1,.733.685.948.948,0,0,1,.271.559.772.772,0,0,1-.13.433,2.815,2.815,0,0,1-.391.451l-3.07,2.939a1.028,1.028,0,0,1-.682.307.942.942,0,0,1-.512-.144q-.231-.144-.512-.36l-.181-.144q-.4-.306-.893-.631a8.2,8.2,0,0,0-1.053-.586,7.638,7.638,0,0,0-1.184-.433,4.745,4.745,0,0,0-1.264-.171,7.448,7.448,0,0,0-1.244.1,3.751,3.751,0,0,0-1.023.316,1.89,1.89,0,0,0-.7.568,1.518,1.518,0,0,0,.02,1.731,2.691,2.691,0,0,0,.843.685,8.158,8.158,0,0,0,1.395.595q.832.28,1.936.6,2.127.631,3.923,1.325a13.615,13.615,0,0,1,3.1,1.641,6.979,6.979,0,0,1,2.037,2.262,6.475,6.475,0,0,1,.732,3.191,7.24,7.24,0,0,1-.9,3.6,8.465,8.465,0,0,1-2.478,2.749,12.065,12.065,0,0,1-3.7,1.758,16.24,16.24,0,0,1-4.575.622,14.285,14.285,0,0,1-4.535-.741,18.133,18.133,0,0,1-4.153-1.989,10.481,10.481,0,0,1-1.355-1.031q-.552-.506-.873-.813l-.06-.054a.1.1,0,0,0-.04-.045.143.143,0,0,1-.04-.027.1.1,0,0,0-.04-.045.148.148,0,0,1-.04-.027q-.462-.452-.462-.723,0-.307.462-.687l3.471-2.975a1.386,1.386,0,0,1,.682-.271.806.806,0,0,1,.381.108A3.718,3.718,0,0,1,1749.146,594.225Z" transform="translate(-1519.536 -575.529)" fill="none" stroke="#fff" stroke-miterlimit="10" stroke-width="3"/>
      </g>
    </g>
  </g>
</svg>
