<svg xmlns="http://www.w3.org/2000/svg" width="276.85" height="79.402" viewBox="0 0 276.85 79.402">
  <g id="logo__samba-arena" data-name="logo_#samba-arena" transform="translate(-64.3 -290)">
    <g id="Grupo_27" data-name="Grupo 27" transform="translate(65.8 291.5)">
      <g id="Grupo_26" data-name="Grupo 26">
        <path id="Caminho_33" data-name="Caminho 33" d="M126.9,307.525V291.5h19.671v14.279h7.614V291.5h19.656v16.025" transform="translate(-117.539 -291.5)" fill="none" stroke="#d7044b" stroke-miterlimit="10" stroke-width="3"/>
        <path id="Caminho_34" data-name="Caminho 34" d="M126.9,681.8v16.025h19.671V683.546h7.614v14.279h19.656V681.8" transform="translate(-117.539 -622.005)" fill="none" stroke="#d7044b" stroke-miterlimit="10" stroke-width="3"/>
        <path id="Caminho_35" data-name="Caminho 35" d="M75.314,432.657H65.8V412.985h9.514v-7.614H65.8V385.7H76.585" transform="translate(-65.8 -371.268)" fill="none" stroke="#d7044b" stroke-miterlimit="10" stroke-width="3"/>
        <path id="Caminho_36" data-name="Caminho 36" d="M432.3,432.657h9.514V412.985H432.3v-7.614h9.514V385.7H432.3" transform="translate(-376.151 -371.268)" fill="none" stroke="#d7044b" stroke-miterlimit="10" stroke-width="3"/>
        <rect id="Retângulo_26" data-name="Retângulo 26" width="7.614" height="7.614" transform="translate(29.032 34.271)" fill="none" stroke="#d7044b" stroke-miterlimit="10" stroke-width="3"/>
      </g>
    </g>
    <g id="Grupo_28" data-name="Grupo 28" transform="translate(137.606 291.837)">
      <path id="Caminho_37" data-name="Caminho 37" d="M541.747,318.657c.306.23.689.521,1.164.9a14.263,14.263,0,0,0,1.624,1.118,13.5,13.5,0,0,0,2.712,1.272,8.63,8.63,0,0,0,2.819.46,8.276,8.276,0,0,0,2.3-.276,3.924,3.924,0,0,0,1.455-.735,2.677,2.677,0,0,0,.766-1.057,3.532,3.532,0,0,0,.23-1.272,1.8,1.8,0,0,0-.628-1.333,6.208,6.208,0,0,0-1.547-1.042,13.742,13.742,0,0,0-1.9-.781c-.659-.215-1.226-.4-1.716-.536A41.2,41.2,0,0,1,543.4,313.2a17.138,17.138,0,0,1-4.014-2.6,9.846,9.846,0,0,1-2.405-3.156,8.948,8.948,0,0,1-.8-3.845,8.229,8.229,0,0,1,1.011-4.06,9.115,9.115,0,0,1,2.865-3.125,14.217,14.217,0,0,1,4.489-2.007,22.406,22.406,0,0,1,5.868-.7,22.062,22.062,0,0,1,4.673.49,19.06,19.06,0,0,1,4.412,1.578c.613.322,1.18.659,1.731,1,.551.352,1.026.674,1.44,1a6.454,6.454,0,0,1,.98.919,1.254,1.254,0,0,1,.368.751,1.119,1.119,0,0,1-.168.582,3.429,3.429,0,0,1-.521.6l-4.106,3.922a1.381,1.381,0,0,1-.9.414,1.244,1.244,0,0,1-.689-.2c-.2-.123-.429-.291-.689-.475l-.245-.2c-.352-.276-.751-.552-1.195-.843a10.406,10.406,0,0,0-1.409-.781,10.762,10.762,0,0,0-1.578-.582,6.3,6.3,0,0,0-1.685-.23,9.387,9.387,0,0,0-1.655.138,4.753,4.753,0,0,0-1.364.429,2.45,2.45,0,0,0-.935.766,1.865,1.865,0,0,0-.352,1.149,1.886,1.886,0,0,0,.368,1.164,3.9,3.9,0,0,0,1.118.919,11.033,11.033,0,0,0,1.869.8c.735.245,1.609.521,2.589.812,1.9.567,3.646,1.149,5.239,1.777a18.124,18.124,0,0,1,4.137,2.191,9.444,9.444,0,0,1,2.727,3.018,8.583,8.583,0,0,1,.98,4.259,9.631,9.631,0,0,1-1.21,4.811,11.293,11.293,0,0,1-3.309,3.677,16.084,16.084,0,0,1-4.948,2.344,21.836,21.836,0,0,1-6.113.827,19.049,19.049,0,0,1-6.051-1,24.633,24.633,0,0,1-5.546-2.65,12.336,12.336,0,0,1-1.808-1.379c-.49-.444-.873-.812-1.164-1.088l-.077-.077a.213.213,0,0,0-.046-.061c-.015-.015-.031-.015-.061-.031a.119.119,0,0,0-.061-.061c-.015-.015-.031-.015-.046-.031-.414-.4-.613-.72-.613-.965,0-.276.2-.582.613-.919l4.642-3.968a1.8,1.8,0,0,1,.9-.368,1.094,1.094,0,0,1,.506.138A3.6,3.6,0,0,1,541.747,318.657Z" transform="translate(-534.5 -293.7)" fill="#d7044b"/>
      <path id="Caminho_38" data-name="Caminho 38" d="M772.436,299.535a.686.686,0,0,1,.169-.306,1.5,1.5,0,0,1,.368-.306,2.146,2.146,0,0,1,.46-.23,1.229,1.229,0,0,1,.46-.092h6.863a1.231,1.231,0,0,1,.781.26,3.5,3.5,0,0,1,.475.444l.674,1.379L796.765,333.3a.653.653,0,0,1-.077.781,1.4,1.4,0,0,1-1.011.306h-7.691a1.79,1.79,0,0,1-.95-.2,1.3,1.3,0,0,1-.521-.689c-.352-.812-.7-1.639-1.042-2.451s-.674-1.624-1.011-2.451H770.23c-.337.812-.689,1.639-1.026,2.451-.352.812-.689,1.624-1.027,2.451a1.327,1.327,0,0,1-1.363.889h-7.905a1.342,1.342,0,0,1-.843-.245c-.23-.153-.26-.4-.123-.72Zm4.887,10.311c-.337.812-.689,1.7-1.026,2.65-.352.95-.689,1.9-1.026,2.865s-.689,1.915-1.026,2.85c-.352.935-.689,1.823-1.026,2.635h8.227Z" transform="translate(-723.641 -297.849)" fill="#d7044b"/>
      <path id="Caminho_39" data-name="Caminho 39" d="M1039.761,299.657a1.209,1.209,0,0,1,.368-.751,1.223,1.223,0,0,1,.9-.306h9.269a1.232,1.232,0,0,1,1.287.919l7.292,21.862,7.339-21.862a1.358,1.358,0,0,1,1.363-.919h9.161a1.41,1.41,0,0,1,.873.306,1.082,1.082,0,0,1,.444.766q.942,8.48,1.915,16.822.988,8.342,1.915,16.822v.123c0,.628-.4.935-1.18.935h-7.583q-1.241,0-1.287-1.057l-2.329-18.614-6.036,18.737a1.426,1.426,0,0,1-.383.582.948.948,0,0,1-.659.337h-7.047a1.084,1.084,0,0,1-.689-.322.961.961,0,0,1-.383-.6l-6.036-18.691-2.329,18.568c-.031.7-.475,1.057-1.318,1.057h-7.583q-1.149,0-1.149-1.057Z" transform="translate(-959.084 -297.849)" fill="#d7044b"/>
      <path id="Caminho_40" data-name="Caminho 40" d="M1382.5,299.618a1.11,1.11,0,0,1,.306-.812,1.186,1.186,0,0,1,.873-.306h17.8a12.234,12.234,0,0,1,4.443.812,11.5,11.5,0,0,1,3.661,2.221,10.671,10.671,0,0,1,2.482,3.294,9.154,9.154,0,0,1,.9,4.06,8.84,8.84,0,0,1-2.405,6.143,11.755,11.755,0,0,1,3.049,3.784,10.024,10.024,0,0,1,1.118,4.642,9.459,9.459,0,0,1-.934,4.152,11.652,11.652,0,0,1-2.528,3.447,11.917,11.917,0,0,1-3.723,2.344,11.715,11.715,0,0,1-4.489.873h-19.38a1.362,1.362,0,0,1-.858-.26.933.933,0,0,1-.322-.781Zm20.177,9.483a3.092,3.092,0,0,0-.291-1.348,3.6,3.6,0,0,0-.827-1.1,4.1,4.1,0,0,0-1.287-.766,4.719,4.719,0,0,0-1.639-.276h-5.745v6.986h5.669a5.4,5.4,0,0,0,1.685-.26,3.82,3.82,0,0,0,1.3-.72,3.472,3.472,0,0,0,.843-1.1A3.269,3.269,0,0,0,1402.677,309.1Zm1.425,14a3.743,3.743,0,0,0-.306-1.44,4.209,4.209,0,0,0-.858-1.287,4.565,4.565,0,0,0-1.318-.935,3.742,3.742,0,0,0-1.655-.368h-7.093v8.043h7.093a3.876,3.876,0,0,0,1.639-.337,4.386,4.386,0,0,0,1.318-.9,4,4,0,0,0,.873-1.287A3.85,3.85,0,0,0,1404.1,323.1Z" transform="translate(-1252.584 -297.765)" fill="#d7044b"/>
      <path id="Caminho_41" data-name="Caminho 41" d="M1622.8,299.535a.685.685,0,0,1,.168-.306,1.507,1.507,0,0,1,.368-.306,2.144,2.144,0,0,1,.46-.23,1.228,1.228,0,0,1,.46-.092h6.863a1.231,1.231,0,0,1,.781.26,3.511,3.511,0,0,1,.475.444l.674,1.379,14.079,32.617a.653.653,0,0,1-.077.781,1.4,1.4,0,0,1-1.011.306h-7.721a1.79,1.79,0,0,1-.95-.2,1.3,1.3,0,0,1-.521-.689c-.352-.812-.7-1.639-1.042-2.451s-.674-1.624-1.011-2.451h-14.248c-.337.812-.69,1.639-1.027,2.451-.352.812-.689,1.624-1.026,2.451a1.327,1.327,0,0,1-1.364.889h-7.921a1.342,1.342,0,0,1-.843-.245c-.23-.153-.26-.4-.122-.72Zm4.887,10.311c-.337.812-.689,1.7-1.026,2.65-.352.95-.689,1.9-1.026,2.865s-.689,1.915-1.026,2.85c-.352.935-.689,1.823-1.027,2.635h8.227Z" transform="translate(-1443.673 -297.849)" fill="#d7044b"/>
    </g>
    <g id="Grupo_30" data-name="Grupo 30" transform="translate(139.959 332.099)">
      <g id="Grupo_29" data-name="Grupo 29">
        <path id="Caminho_42" data-name="Caminho 42" d="M564.452,557.535a.687.687,0,0,1,.169-.306,1.5,1.5,0,0,1,.368-.306,2.144,2.144,0,0,1,.46-.23,1.229,1.229,0,0,1,.46-.092h6.864a1.231,1.231,0,0,1,.781.26,3.5,3.5,0,0,1,.475.444l.674,1.379,14.064,32.6a.653.653,0,0,1-.077.781,1.4,1.4,0,0,1-1.011.306h-7.691a1.79,1.79,0,0,1-.95-.2,1.3,1.3,0,0,1-.521-.689c-.352-.812-.7-1.639-1.042-2.451s-.674-1.624-1.011-2.451H562.23c-.337.812-.689,1.639-1.026,2.451-.352.812-.689,1.624-1.026,2.451a1.327,1.327,0,0,1-1.363.889h-7.905a1.341,1.341,0,0,1-.843-.245c-.23-.153-.26-.4-.123-.72Zm4.872,10.31c-.337.812-.689,1.7-1.026,2.65-.352.95-.689,1.9-1.026,2.865s-.69,1.915-1.027,2.85c-.352.935-.689,1.823-1.026,2.635h8.227Z" transform="translate(-549.861 -556.585)" fill="none" stroke="#d7044b" stroke-miterlimit="10" stroke-width="3"/>
        <path id="Caminho_43" data-name="Caminho 43" d="M838.9,557.618a1.1,1.1,0,0,1,.291-.812,1.2,1.2,0,0,1,.888-.306h17.312a14.125,14.125,0,0,1,5.178.935,13.623,13.623,0,0,1,4.213,2.513,11.793,11.793,0,0,1,2.834,3.723,10.287,10.287,0,0,1,1.026,4.535,10.105,10.105,0,0,1-.49,3.125,11.488,11.488,0,0,1-3.478,5.1,13.1,13.1,0,0,1-2.666,1.792l6.894,11.659c.123.23.291.49.475.8a1.5,1.5,0,0,1,.291.8.7.7,0,0,1-.276.6,1.263,1.263,0,0,1-.766.2h-9.192a1.341,1.341,0,0,1-.812-.245,1.107,1.107,0,0,1-.475-.644l-6.526-11h-4.336v10.862c0,.689-.414,1.042-1.226,1.042H840.1a1.276,1.276,0,0,1-.858-.26.953.953,0,0,1-.322-.781V557.618Zm20.989,10.694a3.72,3.72,0,0,0-.291-1.44,4.764,4.764,0,0,0-.827-1.318,4.707,4.707,0,0,0-1.287-1.011,5,5,0,0,0-1.655-.536c-.506-.031-.965-.061-1.409-.077-.444-.031-.919-.031-1.44-.031h-3.692v8.84h4.933c.322,0,.613-.015.858-.031s.521-.046.827-.077a4.507,4.507,0,0,0,1.685-.49,4.261,4.261,0,0,0,1.256-.981,4.228,4.228,0,0,0,1.042-2.85Z" transform="translate(-794.618 -556.5)" fill="none" stroke="#d7044b" stroke-miterlimit="10" stroke-width="3"/>
        <path id="Caminho_44" data-name="Caminho 44" d="M1084.715,557.618a1.11,1.11,0,0,1,.306-.812,1.187,1.187,0,0,1,.873-.306h26.581a1.265,1.265,0,0,1,.9.306,1.132,1.132,0,0,1,.322.843v5.975a1.18,1.18,0,0,1-1.256,1.149h-17.373v5.975h13.405a1.561,1.561,0,0,1,.843.214.772.772,0,0,1,.337.72v5.209a.89.89,0,0,1-.291.643,1.091,1.091,0,0,1-.858.306h-13.436V584h18.017c.8,0,1.21.368,1.21,1.1v6.051a.584.584,0,0,1-.214.429c-.077.444-.444.674-1.1.674h-27.1a1.277,1.277,0,0,1-.858-.26.932.932,0,0,1-.322-.781v-33.6Z" transform="translate(-1002.761 -556.5)" fill="none" stroke="#d7044b" stroke-miterlimit="10" stroke-width="3"/>
        <path id="Caminho_45" data-name="Caminho 45" d="M1321.615,557.657a1.053,1.053,0,0,1,.291-.751,1.141,1.141,0,0,1,.888-.306h8.763a2.179,2.179,0,0,1,.781.169,1.478,1.478,0,0,1,.689.582q3.4,4.941,6.756,9.728c2.237,3.2,4.489,6.435,6.787,9.728V557.519a1.152,1.152,0,0,1,.429-.674,1.259,1.259,0,0,1,.751-.245h7.645a1.537,1.537,0,0,1,.935.276.919.919,0,0,1,.367.781v33.766a.8.8,0,0,1-.322.7,1.5,1.5,0,0,1-.889.23h-8.549a.961.961,0,0,1-.613-.215,3.44,3.44,0,0,1-.567-.582c-2.375-3.539-4.734-7.032-7.047-10.479l-7.078-10.479v20.682a1.071,1.071,0,0,1-.276.8,1.35,1.35,0,0,1-.965.26h-7.614a1.214,1.214,0,0,1-.9-.306,1.044,1.044,0,0,1-.276-.735V557.657Z" transform="translate(-1203.368 -556.585)" fill="none" stroke="#d7044b" stroke-miterlimit="10" stroke-width="3"/>
        <path id="Caminho_46" data-name="Caminho 46" d="M1601.537,557.535a.686.686,0,0,1,.168-.306,1.5,1.5,0,0,1,.368-.306,2.147,2.147,0,0,1,.459-.23,1.23,1.23,0,0,1,.46-.092h6.864a1.231,1.231,0,0,1,.781.26,3.5,3.5,0,0,1,.475.444l.674,1.379,14.079,32.617a.653.653,0,0,1-.077.781,1.4,1.4,0,0,1-1.011.306h-7.691a1.791,1.791,0,0,1-.95-.2,1.3,1.3,0,0,1-.521-.689c-.353-.812-.7-1.639-1.042-2.451s-.674-1.624-1.011-2.451h-14.232c-.337.812-.689,1.639-1.026,2.451-.352.812-.689,1.624-1.026,2.451a1.327,1.327,0,0,1-1.364.889h-7.905a1.342,1.342,0,0,1-.843-.245c-.23-.153-.26-.4-.123-.72Zm4.887,10.31c-.337.812-.689,1.7-1.026,2.65-.352.95-.69,1.9-1.027,2.865s-.689,1.915-1.026,2.85c-.352.935-.689,1.823-1.026,2.635h8.227Z" transform="translate(-1428.074 -556.585)" fill="none" stroke="#d7044b" stroke-miterlimit="10" stroke-width="3"/>
      </g>
    </g>
  </g>
</svg>
