<svg xmlns="http://www.w3.org/2000/svg" width="90.063" height="77.232" viewBox="0 0 90.063 77.232">
  <g id="logo_comp_TheArenaShow" transform="translate(-187.476 -533.751)">
    <path id="Caminho_28" data-name="Caminho 28" d="M252,537.291c-11.082.768-18.493,1.324-29.117,4.165a16.125,16.125,0,0,0-1.57-4.513c-2.98-4.958-12.2-4.353-11.319,3.319.54,4.738,3.887,5.85,6.925,5.678,2.845-.164,5.318-1.443,7.971-2.2,8.919-2.539,17.9-3.18,27.241-3.871,6.675,2.923,17.12,8.024,25.119,15.341-9.619.674-24.126,2.976-32.555,5.972a15.785,15.785,0,0,0-1.557-3.2,10.66,10.66,0,0,0-9.377-4.284,10.219,10.219,0,0,0-2.776.462c-7.207,2.359-7.546,15.141,4.448,14.647,1.978-.082,3.9-1.1,6.6-1.974,4.394-1.419,5.228-1.647,9.451-2.792,4.129-1.12,8.233-2.081,12.353-2.817a125.643,125.643,0,0,1,12.558-1.537c4.235-.319,8.576-.491,13.02-.568C275.935,549.2,268.569,544,252,537.291Zm-36.647-1.247a4.2,4.2,0,0,0-2.469,4.051c0,.213.012.421.033.63.135,1.206-.294,1.116-.809.343a4.21,4.21,0,0,1-.773-2.342c0-2.056,2.359-3.507,3.7-3.385C216.356,535.459,216.437,535.684,215.354,536.044Zm15.726,26.211a5.2,5.2,0,0,0,.3.556c.642,1.038.221,1.145-.576.666a4.237,4.237,0,0,1-1.7-1.8c-.887-1.864.6-4.2,1.852-4.672,1.23-.462,1.4-.29.589.5A4.262,4.262,0,0,0,231.08,562.255Zm55.442-.323c-.507-.02-3.957-.2-4.284-.168l-1.316-.008c-.192-.008-.29.012-.441.012s-.3-.016-.446-.025l-2.588.057c-.127.012-.327.012-.437.016l-6.643.413c-.266.029-.544.049-.83.078-1.978.18-5.13.589-7.035.928-.752.135-1.512.241-2.26.4l-1.1.217c-.883.139-2.485.5-3.336.7-.482.11-.977.2-1.447.331l-2.833.724c-.074.016-.106.021-.176.037s-.082.029-.168.049l-1.226.339c-.065.016-.114.029-.168.045-.127.037-.241.065-.364.1-.233.061-.454.135-.683.2-.441.131-.936.253-1.373.413-.454.164-.92.278-1.374.433-.213.074-.441.151-.666.225l-1.991.687c-.646.233-1.3.515-1.95.724-.478.155-1.451.589-1.929.777A19.346,19.346,0,0,0,237,570.757c-.2.115-.368.213-.564.335l-.266.2a.3.3,0,0,0-.131.286,1.624,1.624,0,0,0,.7-.131c.625-.217,1.177-.5,1.79-.756,1.206-.5,2.477-.944,3.716-1.4l.948-.319c.936-.335,1.954-.634,2.915-.92l1.288-.384c.213-.061.429-.118.654-.184l1.337-.36c.462-.139.9-.217,1.349-.347l2.391-.568c.352-.1.707-.151,1.059-.237,1.725-.4,3.544-.683,5.294-1.022,1.329-.253,2.7-.392,4.043-.6.764-.119,1.5-.188,2.277-.27,1.251-.135,2.563-.229,3.855-.347l2.363-.147c.233-.008.544-.016.789-.041l4.116-.094a2.912,2.912,0,0,0,.392-.012c.315-.012.977.037,1.3.024.491-.02,1.243.082,1.713.037a17.862,17.862,0,0,1,2.224.074,2.827,2.827,0,0,0,1.856-.233,9.057,9.057,0,0,0,1.909-1.03C286.35,562.287,286.788,561.944,286.522,561.932Zm-8.719,5.486-1.5-.176a3.357,3.357,0,0,1-.343-.069c-.139-.02-.2.008-.368-.012-.65-.078-1.21-.151-1.848-.188-.123-.008-.27-.033-.392-.049-.163-.016-.217,0-.343-.008s-.27-.041-.4-.049l-3.855-.172a3.628,3.628,0,0,1-.364-.008c-.213-.012-.5-.008-.691,0l-1.361-.008a2.8,2.8,0,0,0-.327.008c-.139,0-.208,0-.356,0l-2.633.094c-.634.02-1.312.045-1.95.114l-1.263.106c-.225.012-.425.033-.642.053l-4.3.535c-1.006.131-2.007.339-3,.495-.58.094-1.161.241-1.733.343l-3.025.666c-.7.155-1.406.376-2.093.54l-2.465.715c-.1.033-.155.049-.262.082-.842.262-2.122.679-2.886,1.006l-1.786.728c-.078.041-.446.184-.388.307s.45-.078.527-.115c.593-.282,1.884-.719,2.579-.969l1.6-.527c.916-.262,1.807-.564,2.735-.789l1.68-.429c1.329-.335,2.661-.613,4.006-.887.478-.1,1.631-.327,2.064-.372l.92-.151c.785-.127,1.6-.241,2.42-.343l2.816-.3c.114-.012.188-.029.3-.033l4.554-.27,3.352-.029c.822.008,1.623.012,2.457.065.213.012.446,0,.683.025a2.564,2.564,0,0,0,.376.02l1.075.065c.118.012.278.041.4.045a6.711,6.711,0,0,1,.711.057l.736.057c.282.033.486.025.74.057s.511.057.764.09a12.38,12.38,0,0,1,1.517.188c.307.086.666.057.973.147a1.306,1.306,0,0,0,1.051-.311c.119-.082.184-.1.258-.233C278.269,567.5,278.077,567.45,277.8,567.417Zm-8.8-13.326c-.4-.429-.838-.826-1.247-1.251a14.843,14.843,0,0,0-1.316-1.169c-.053-.041-.082-.078-.135-.119s-.086-.07-.139-.119l-2.142-1.627c-.274-.225-1.463-1-1.827-1.2-.069-.041-.106-.065-.159-.1l-.311-.188c-.691-.417-1.414-.789-2.126-1.181-.5-.278-1.046-.491-1.553-.76l-.7-.323c-.241-.106-.462-.2-.7-.307l-.544-.225c-.065-.024-.119-.041-.188-.074l-.74-.29a.762.762,0,0,0-.082-.041l-.666-.245c-.119-.041-.237-.09-.372-.135s-.245-.09-.372-.135c-.245-.094-.523-.176-.773-.262l-.789-.249c-.278-.069-.531-.168-.822-.221a4.767,4.767,0,0,0-.912-.123c-.155,0-.339-.033-.495-.029-.1,0-.2.012-.29.016-.123,0-.135-.02-.258-.016l-5.175.188-.11.008c-.114,0-.168.025-.278.033-.2.016-.413.016-.617.025-.237.008-.4.041-.621.049-.6.02-1.259.127-1.848.143a2,2,0,0,0-.3.029c-.11.021-.208.008-.319.033l-.593.061c-.208.012-.417.016-.621.049l-1.778.208c-.192.008-.409.049-.605.074l-1.2.164c-.131.008-.172.016-.29.033-.086.016-.188.024-.29.045-.585.106-1.177.168-1.758.266l-1.733.3c-.85.139-1.987.352-2.841.556-.188.041-.364.078-.548.123l-2.224.523c-.184.045-.376.09-.556.139s-.352.094-.531.143l-.818.217c-.789.217-1.627.5-2.4.724-.172.049-.364.123-.531.172-1.373.421-2.743.956-4.108,1.484a41.545,41.545,0,0,0-3.9,1.762c-.086.045-.131.078-.225.123a21.592,21.592,0,0,0-2.506,1.5c.045.159.2.241.315.352.609.613,1.251,1.206,1.889,1.795a20.963,20.963,0,0,0,1.942,1.766,4.382,4.382,0,0,0,2.3.433c.033-.151-.094-.2-.172-.27-.507-.511-1.145-1.1-1.668-1.582-.331-.3-.621-.6-.948-.9a12.534,12.534,0,0,0-.977-.9c.029-.061.041-.057.09-.094a.951.951,0,0,1,.106-.07.686.686,0,0,0,.106-.069l1.026-.613c.388-.213.773-.437,1.169-.634l.593-.3c.049-.024.082-.037.135-.061l1.692-.789c1.165-.511,3.6-1.468,4.873-1.868l1.594-.515c.9-.286,1.807-.54,2.71-.793.736-.208,1.484-.388,2.22-.564.1-.025.172-.033.274-.057.654-.168,1.32-.29,1.97-.441l1.725-.343c.564-.086,1.157-.221,1.729-.307l1.173-.2c.691-.123,1.378-.192,2.077-.294a2.949,2.949,0,0,1,.311-.041l.875-.11c.09-.012.208-.02.315-.033a12.219,12.219,0,0,1,1.218-.139c.282-.012.625-.082.9-.106.106-.012.221,0,.327-.016a1.9,1.9,0,0,1,.294-.033l1.23-.123.331-.012c.4-.012.842-.078,1.247-.094l.311-.012c.135-.008.176-.033.311-.037.871-.037,1.688-.094,2.547-.127.707-.029,1.337-.033,2.044-.061a14.626,14.626,0,0,1,1.745,0l.531.18q.1.031.184.061l1.222.462c.106.053.229.086.347.135.94.4,1.88.805,2.784,1.267l1.1.568c.417.2.818.458,1.214.691a.438.438,0,0,1,.074.045l1.664,1.051a.771.771,0,0,1,.127.09c.049.037.094.061.147.094l.278.2,1.365,1c.274.192.519.417.785.625.053.041.074.065.127.106.805.679,1.557,1.41,2.306,2.15.159.155.29.315.458.462a1.716,1.716,0,0,0,.638.327,5.558,5.558,0,0,0,1.651.307,1.043,1.043,0,0,0,.229-.057C269.223,554.239,269.088,554.177,269.006,554.091Zm21.714,12.7a1.717,1.717,0,0,1-.266-.151,1.9,1.9,0,0,1-.707-.9,4.863,4.863,0,0,1-.27-1.226l.008-.02a3.889,3.889,0,0,0-.368-.924,2.287,2.287,0,0,0-.658-.793.827.827,0,0,0-.58-.163c-.192.029-.7.666-1.537,1.921-.507.777-1.022,1.562-1.533,2.346-.069.09-.123.127-.163.11a3.238,3.238,0,0,0-1.32-1.664,2.683,2.683,0,0,0-2.346-.5,2.216,2.216,0,0,0-1.467,1.051,1.6,1.6,0,0,0-.09.928,1.934,1.934,0,0,0,.327.9,2.312,2.312,0,0,0,.568.511,7.13,7.13,0,0,0,1.263.658,2.513,2.513,0,0,0,1.312.213,2.331,2.331,0,0,0,1.21-.507,2.093,2.093,0,0,0,.356-.417c.106-.151.2-.3.3-.454q.582-.84.883-1.251c.536-.826.809-1.247.822-1.267a1.631,1.631,0,0,1,.752.2,3.17,3.17,0,0,1,.65.777,3.256,3.256,0,0,0,.764.854,2.482,2.482,0,0,0,2.06.184C290.851,567.066,290.859,566.927,290.72,566.792ZM225.545,572.1l0,.221c-.016.589-.033,1.173-.045,1.758l1.239-.208c.012-.658.033-1.32.053-1.983Zm-.049-3.683,0,.2c-.025.854-.053,1.541-.074,2.3l1.414-.245q.037-1.251.082-2.506Z" transform="translate(-13.279)" fill="#fff" fill-rule="evenodd"/>
    <path id="Caminho_29" data-name="Caminho 29" d="M201.526,616c-.009.826-.01,1.645-.011,2.467-.755.111-1.5.217-2.258.323-.007-.818-.014-1.634-.013-2.462-.94.14-1.88.274-2.812.414q.043,3.658.124,7.306c.907-.134,1.824-.268,2.756-.4-.015-.818-.022-1.635-.029-2.453.739-.106,1.486-.212,2.233-.322.007.822.006,1.639.013,2.458.924-.126,1.841-.247,2.757-.372.013-2.445.025-4.889.061-7.349-.941.131-1.889.262-2.821.392m-5,42.582c5.56-.8,8.129-2.813,7.976-6.634-.2-4.9-4.784-4.1-7.915-4.193-.546-.016-1.086-.036-1.616-.032-.9.006-.887-.52-.892-.634-.019-.39.376-.871,1.81-1.09,1.67-.256,2.415.139,2.591.939q2.672-.373,5.355-.721c.016-5.177-3.3-5.952-8.007-5.236-5.3.807-7.685,3.365-7.528,6.728.217,4.62,4.1,4.051,7.012,4.071.666,0,1.351.041,2.025.033,1.281-.014,1.18.544,1.185.663.02.4-.582.887-2.227,1.109-1.962.265-2.662-.107-2.693-.927-1.788.289-3.567.591-5.347.888C188.282,658.111,190.849,659.392,196.53,658.578Zm19.5-19.538c.03,1.869.06,3.748.1,5.622q-2.449.224-4.88.476c-.047-1.859-.085-3.728-.114-5.592-2.022.229-4.052.468-6.065.716q.109,4.146.253,8.3t.347,8.3c2-.229,4-.442,6-.642-.09-1.862-.162-3.73-.234-5.6,1.615-.158,3.231-.312,4.855-.456.064,1.877.146,3.749.235,5.621q3-.228,6.01-.423c-.126-2.81-.235-5.617-.31-8.429s-.1-5.621-.122-8.43C220.081,638.663,218.058,638.85,216.034,639.04Zm16.437,16.434c5.451-.147,8.636-3.723,8.554-9.342-.082-5.635-3.412-9.171-8.916-8.87-5.53.3-9,4.114-8.859,9.592S227,655.622,232.471,655.475Zm-.233-5.751c-1.543.056-2.955-.971-3.007-3.216-.053-2.265,1.323-3.414,2.865-3.487s2.925.962,2.966,3.246C235.1,648.527,233.755,649.669,232.237,649.724Zm11.631,5.106q4.052.066,8.082.2c.157-2.252.323-4.495.522-6.749.155.009.316.009.488.017.279,2.266.6,4.532.942,6.814,2.671.131,5.37.28,8.043.454.318-3,.679-6.008,1.114-9.015s.974-6.043,1.546-9.078c-2.037-.065-4.08-.112-6.115-.145q-.735,5.226-1.276,10.423c-.163,0-.334-.009-.505-.017q-.853-5.23-1.56-10.448-2.345-.009-4.681,0-.984,5.142-1.78,10.258c-.18,0-.351-.007-.521-.007-.394-3.417-.754-6.816-1.054-10.221q-3.073.051-6.152.141c.4,2.882.826,5.777,1.3,8.658C242.746,649.017,243.31,651.919,243.868,654.831Zm-49.49-20.45c.293-1.207.6-2.419.894-3.631.305-.048.61-.1.907-.14.37,1.109.73,2.223,1.1,3.327C196.313,634.089,195.354,634.234,194.379,634.381Zm4.712,5.091q2.748-.391,5.508-.745-1.309-3.5-2.59-6.989t-2.58-6.951c-2.57.376-5.14.762-7.692,1.17q-1.11,3.83-2.178,7.672t-2.083,7.674c1.813-.3,3.644-.607,5.474-.907.128-.548.264-1.1.39-1.654,1.755-.278,3.5-.541,5.258-.795C198.76,638.458,198.921,638.968,199.091,639.472Zm11.454-11.408c.841-.1,1.7-.2,2.557-.295.824-.092,1.181.323,1.176,1.01a1.2,1.2,0,0,1-1.186,1.271c-.858.094-1.708.189-2.557.285C210.54,629.581,210.538,628.823,210.544,628.064Zm9.656,8.978c-.791-1.519-1.546-3.031-2.31-4.541a5.956,5.956,0,0,0,1.842-4.345c.1-4.207-2.169-5.672-6.152-5.211-2.837.327-5.664.688-8.507,1.059.014,2.441.024,4.884.051,7.32s.072,4.878.129,7.314c1.774-.22,3.567-.437,5.351-.644-.02-1.129-.033-2.275-.036-3.414.909-.107,1.835-.209,2.761-.311q.809,1.633,1.618,3.262C216.688,637.364,218.44,637.2,220.2,637.042Zm.927-.083q6.433-.514,12.873-.884c.036-1.566.072-3.132.116-4.694-2.512.154-5.04.329-7.561.513.01-.325.02-.659.029-1,2.417-.185,4.843-.361,7.271-.512.051-1.243.094-2.479.155-3.721-2.451.177-4.886.357-7.327.558.009-.334.027-.674.037-1.013,2.552-.208,5.1-.408,7.651-.583.079-1.562.174-3.139.287-4.708q-6.637.527-13.252,1.168c-.086,2.488-.172,4.965-.215,7.444S221.128,634.483,221.127,636.959Zm14.024-.942c1.739-.076,3.478-.153,5.208-.22.06-2.307.155-4.609.266-6.921.161-.01.324-.015.494-.021,1.057,2.265,2.106,4.539,3.2,6.825,1.971-.046,3.969-.078,5.958-.1.105-2.608.233-5.211.419-7.819s.433-5.219.7-7.832c-1.79.083-3.562.166-5.351.258-.221,2.34-.4,4.679-.552,7.012-.171.005-.333.015-.486.02q-1.458-3.421-2.88-6.807-3.156.2-6.293.418-.266,3.809-.438,7.6C235.28,630.961,235.208,633.488,235.151,636.018Zm23.3-6.724c.435-1.269.877-2.543,1.337-3.818.3-.006.6-.011.905-.011.206,1.272.43,2.548.653,3.824C260.376,629.286,259.411,629.29,258.446,629.293Zm4.1,6.362q2.733.066,5.484.157c-.635-2.736-1.246-5.458-1.8-8.184-.55-2.7-1.045-5.4-1.516-8.1-2.56.057-5.111.116-7.678.187-1.119,2.675-2.211,5.323-3.231,7.978-1.008,2.626-1.952,5.259-2.876,7.88,1.835-.013,3.672-.016,5.492,0,.178-.569.364-1.147.549-1.726,1.743.009,3.5.027,5.239.055C262.309,634.489,262.422,635.072,262.543,635.655ZM195.87,616.824c-2.626.4-5.235.815-7.844,1.235.03.79.06,1.584.1,2.37l2.5-.409c.063,1.644.117,3.281.179,4.92.907-.148,1.823-.292,2.738-.439-.045-1.634-.092-3.277-.13-4.916.827-.131,1.654-.258,2.5-.385C195.889,618.409,195.876,617.62,195.87,616.824Zm9.019,6.049q3.3-.427,6.634-.835c.011-.768.032-1.527.052-2.292-1.3.16-2.606.322-3.892.486,0-.159,0-.325,0-.492,1.255-.159,2.493-.313,3.755-.468.011-.606.031-1.212.05-1.818-1.262.155-2.517.314-3.78.477.009-.168.009-.33.009-.493,1.311-.174,2.621-.335,3.94-.5.02-.764.048-1.528.076-2.3-2.26.287-4.527.584-6.785.885Q204.9,619.206,204.889,622.874Z" transform="translate(0 -47.824)" fill="#fff" fill-rule="evenodd"/>
  </g>
</svg>
